# Blender v2.72 (sub 0) OBJ File: ''
# www.blender.org
o Cube.001
v 0.500000 0.030315 -0.500000
v 0.500000 0.030315 0.500000
v -0.500000 0.030315 0.500000
v -0.500000 0.030315 -0.500000
v -0.500000 1.030315 -0.500000
v -0.500000 1.030315 0.500000
v -1.000000 1.030315 1.000000
v -1.000000 1.030315 -1.000000
v 0.500000 1.030315 -0.500000
v 0.500000 1.030315 0.500000
v 0.999999 1.030315 1.000001
v 1.000000 1.030315 -0.999999
v -1.000000 2.030315 1.000000
v -1.000000 2.030315 -1.000000
v 0.999999 2.030315 1.000001
v 1.000000 2.030315 -0.999999
v -1.077354 2.030315 1.077353
v -1.077353 2.030315 -1.077354
v 1.077353 2.030315 1.077354
v 1.077354 2.030315 -1.077353
v -1.077354 -0.036352 1.077353
v -1.077353 -0.036352 -1.077354
v 1.077353 -0.036352 1.077354
v 1.077354 -0.036352 -1.077353
vn 0.000000 1.000000 0.000000
vn -1.000000 -0.000000 0.000000
vn 0.000000 0.000000 -1.000000
vn 1.000000 0.000000 0.000000
vn 0.000000 -0.000000 1.000000
vn 0.000000 -1.000000 -0.000000
s off
f 4//1 3//1 2//1
f 5//1 8//1 7//1
f 1//2 2//2 10//2
f 3//3 6//3 10//3
f 4//4 5//4 6//4
f 5//5 4//5 1//5
f 7//1 11//1 10//1
f 12//1 8//1 5//1
f 11//1 12//1 9//1
f 14//4 13//4 7//4
f 13//3 15//3 11//3
f 16//5 14//5 8//5
f 15//2 16//2 12//2
f 18//1 17//1 13//1
f 13//1 17//1 19//1
f 20//1 18//1 14//1
f 15//1 19//1 20//1
f 22//2 21//2 17//2
f 21//5 23//5 19//5
f 24//3 22//3 18//3
f 19//4 23//4 24//4
f 23//6 21//6 22//6
f 1//1 4//1 2//1
f 6//1 5//1 7//1
f 9//2 1//2 10//2
f 2//3 3//3 10//3
f 3//4 4//4 6//4
f 9//5 5//5 1//5
f 6//1 7//1 10//1
f 9//1 12//1 5//1
f 10//1 11//1 9//1
f 8//4 14//4 7//4
f 7//3 13//3 11//3
f 12//5 16//5 8//5
f 11//2 15//2 12//2
f 14//1 18//1 13//1
f 15//1 13//1 19//1
f 16//1 20//1 14//1
f 16//1 15//1 20//1
f 18//2 22//2 17//2
f 17//5 21//5 19//5
f 20//3 24//3 18//3
f 20//4 19//4 24//4
f 24//6 23//6 22//6
