# Blender v2.74 (sub 0) OBJ File: ''
# www.blender.org
mtllib cloud1.mtl
o Mball
v 0.361936 0.468360 -3.278520
v 0.396956 1.405080 -3.278520
v 0.468360 1.405080 -3.181031
v 0.169840 -0.468360 -3.278520
v 0.468360 0.468360 -2.949480
v -0.360818 -0.468360 -2.341800
v 0.468360 0.363501 -2.341800
v 0.108876 -1.405080 -2.341800
v -0.143004 -2.341800 -2.341800
v -0.468360 -2.341800 -2.548219
v -0.110823 -1.405080 -3.278520
v -0.468360 -1.960064 -3.278520
v -1.236760 -2.341800 -2.341800
v -1.405080 -1.929624 -3.278520
v -1.405080 -2.138011 -2.341800
v -0.468360 -2.522449 -2.341800
v -0.468360 -2.851773 -1.405080
v -1.405080 -2.341800 -2.141243
v -1.405080 -2.583199 -1.405080
v -0.468360 -2.341800 -0.531890
v -1.405080 -2.341800 -0.904255
v 0.277321 -2.341800 -1.405080
v -1.607402 -2.341800 -1.405080
v -1.725859 -1.405080 -1.405080
v -1.405080 -1.405080 -0.622064
v -1.405080 -0.776443 -1.405080
v -1.493411 -1.405080 -2.341800
v -1.684218 -1.405080 -3.278520
v -1.965891 -2.341800 -4.215240
v -1.405080 -2.341800 -3.554461
v -2.340386 -1.405080 -4.215240
v -2.043070 -0.468360 -4.215240
v -1.405080 -2.715853 -4.215240
v -0.468360 -2.722927 -4.215240
v -0.468360 -2.341800 -3.544376
v -0.468360 -2.610785 -5.151959
v -1.405080 -2.341800 -5.503704
v -0.468360 -2.341800 -5.513327
v -1.405080 -1.405080 -5.896631
v -0.468360 -1.405080 -5.903471
v -0.468360 -0.468360 -5.548882
v -1.405080 -0.468360 -5.539414
v -1.405080 -0.167969 -5.151959
v -0.468360 -0.153159 -5.151959
v -1.405080 0.300672 -4.215240
v -1.151298 0.468360 -4.215240
v -0.468360 0.468360 -4.263809
v -0.468360 0.522616 -4.215240
v -0.468360 1.405080 -3.749697
v -1.405080 1.405080 -3.431844
v -1.405080 0.468360 -3.977228
v -1.405080 1.708423 -3.278520
v -1.686598 0.468360 -3.278520
v -1.548975 1.405080 -3.278520
v -1.685265 0.468360 -2.341800
v -1.831887 1.405080 -2.341800
v -1.405080 0.468360 -1.554024
v -1.405080 1.405080 -1.477610
v -1.405080 2.119025 -2.341800
v -1.405080 0.049972 -2.341800
v -1.144572 -0.468360 -1.405080
v -1.347767 0.468360 -1.405080
v -0.973165 -0.468360 -2.341800
v -1.405080 -0.468360 -2.824406
v -1.405080 -1.148678 -2.341800
v -1.175930 0.468360 -0.468360
v -0.948458 -0.468360 -0.468360
v -1.202770 -0.468360 0.468360
v -0.801011 0.468360 1.405080
v -1.205145 0.468360 0.468360
v -0.468360 0.801011 1.405080
v -0.468360 -1.202770 0.468360
v -0.468360 -0.801011 1.405080
v 0.468360 -1.202770 0.468360
v 0.468360 -0.801011 1.405080
v 0.468360 -0.468360 1.619492
v -0.468360 -0.468360 1.619492
v 0.468360 0.468360 1.619492
v -0.468360 0.468360 1.619492
v 0.468360 0.801011 1.405080
v 0.801011 0.468360 1.405080
v 1.202770 -0.468360 0.468360
v 0.801011 -0.468360 1.405080
v -0.801011 -0.468360 1.405080
v 0.286909 -0.468360 -4.215240
v 0.004964 -0.468360 -5.151959
v -0.383482 0.468360 -4.215240
v -1.816110 -2.341800 -5.151959
v -2.233430 -1.405080 -5.151959
v 0.112240 -2.341800 -4.215240
v 0.092725 -0.468360 -1.405080
v 0.468360 -0.468360 -0.699744
v 0.468360 0.185794 -1.405080
v 0.535463 0.468360 -2.341800
v 0.575953 0.468360 -1.405080
v 0.681720 1.405080 -2.341800
v 0.468360 1.405080 -1.583091
v 0.468360 1.273490 -1.405080
v 0.468360 1.887096 -2.341800
v 0.468360 1.112681 -0.468360
v 0.392834 1.405080 -1.405080
v -0.468360 1.405080 -0.586464
v -0.468360 1.356690 -0.468360
v 0.876818 0.468360 -0.468360
v 0.733775 -0.468360 -0.468360
v -0.468360 2.141964 -3.278520
v -0.468360 2.341800 -2.917321
v -0.138707 2.341800 -2.341800
v 0.379984 -1.405080 -5.151959
v -0.036225 -2.341800 -5.151959
v -0.468360 2.417653 -2.341800
v -0.468360 2.341800 -2.029444
v -1.013283 2.341800 -2.341800
v -0.468360 1.929968 -1.405080
v -1.739720 -0.468360 -3.278520
v -1.340040 1.405080 -1.405080
v 0.468360 -1.145772 -4.215240
v 0.468360 -1.405080 -4.918541
v 0.487077 -1.405080 -4.215240
v 0.468360 -1.598191 -4.215240
v 0.468360 -1.405080 -4.152873
v -1.857058 -0.468360 -5.151959
v -1.405080 -2.603206 -5.151959
v 0.446987 -1.405080 -1.405080
v 0.196575 -1.405080 -0.468360
v 0.468360 -0.730601 -0.468360
v -0.468360 -1.405080 -0.079947
v -0.468360 -2.247872 -0.468360
v -1.256091 -1.405080 -0.468360
v 1.202770 0.468360 0.468360
v 0.468360 1.203842 0.468360
v -0.468360 1.215029 0.468360
vn 0.806400 -0.030100 -0.590600
vn 0.933900 -0.191500 -0.302000
vn 0.657300 -0.655200 0.372400
vn 0.797500 0.399900 0.451800
vn 0.530200 -0.142600 -0.835800
vn 0.824800 -0.531300 -0.193400
vn -0.123500 -0.879400 -0.459700
vn -0.031700 -0.975600 -0.217000
vn -0.174200 -0.741000 -0.648500
vn -0.216500 -0.921000 -0.323800
vn -0.348100 -0.890800 -0.292100
vn -0.196600 -0.846700 0.494500
vn 0.508500 -0.743500 0.434300
vn -0.732100 -0.613600 0.295800
vn -0.920900 -0.116500 0.372000
vn -0.836800 0.427000 0.342800
vn -0.868800 -0.462400 0.177000
vn -0.699600 -0.397500 0.593800
vn -0.750800 -0.399600 0.525900
vn -0.792700 0.251600 0.555300
vn -0.502000 -0.752600 0.426100
vn -0.005300 -0.869500 0.494000
vn -0.007500 -0.992900 -0.118900
vn -0.006100 -0.802200 -0.597100
vn -0.006700 -0.384500 -0.923100
vn -0.006800 0.354000 -0.935200
vn -0.006200 0.790300 -0.612700
vn -0.014100 0.894200 -0.447400
vn -0.070500 0.106700 -0.991800
vn -0.052900 0.666000 -0.744000
vn -0.037000 0.466300 -0.883900
vn -0.281400 0.482800 -0.829300
vn -0.289800 0.431700 -0.854200
vn -0.725000 0.106500 -0.680400
vn -0.989400 0.145400 0.001400
vn -0.932100 -0.145900 0.331500
vn -0.790200 0.472400 0.390300
vn -0.796800 -0.533600 0.283400
vn -0.914700 -0.198400 0.352000
vn -0.760800 -0.633900 -0.139200
vn -0.633000 -0.527500 0.566600
vn -0.673600 0.427600 0.602800
vn -0.961900 -0.208700 0.176500
vn -0.939600 -0.228200 -0.255100
vn -0.918200 -0.002300 0.396100
vn -0.676300 0.676300 0.291800
vn -0.676700 -0.676700 0.290200
vn 0.000000 -0.919000 0.394200
vn 0.000000 -0.541800 0.840500
vn 0.000000 0.000000 1.000000
vn 0.000000 0.541800 0.840500
vn 0.541800 0.000000 0.840500
vn 0.676700 -0.676700 0.290200
vn -0.541800 0.000000 0.840500
vn -0.475300 0.719300 -0.506700
vn 0.546700 0.821000 -0.164600
vn 0.311700 0.778500 -0.544800
vn -0.640700 -0.285500 -0.712700
vn 0.495700 -0.755100 0.429000
vn -0.903900 -0.402700 -0.144500
vn 0.682700 0.488600 -0.543300
vn 0.670000 -0.667800 -0.324400
vn 0.787300 -0.452100 -0.419300
vn 0.841700 -0.538700 -0.036400
vn 0.952000 -0.148600 0.267700
vn 0.990300 0.132300 -0.042800
vn 0.885600 0.392000 0.249000
vn 0.990900 0.132400 0.022700
vn 0.640700 0.367700 0.674000
vn 0.248700 0.954600 0.163900
vn 0.813900 0.467200 0.345300
vn 0.782100 -0.029200 -0.622400
vn 0.433900 0.420400 -0.796900
vn 0.890700 0.394200 -0.226400
vn 0.838700 -0.536700 -0.092600
vn 0.653800 -0.099800 -0.750000
vn 0.895100 -0.340800 -0.287500
vn 0.585700 0.687700 -0.429000
vn 0.567000 0.757000 -0.324800
vn 0.417000 0.489600 -0.765800
vn 0.636100 -0.282600 -0.718000
vn 0.222400 0.966600 -0.127400
vn 0.218200 0.948300 0.230300
vn -0.134000 0.963000 0.233900
vn -0.136700 0.982100 -0.129400
vn 0.462600 0.740100 0.488200
vn 0.498400 0.731800 0.464900
vn -0.689100 0.326900 -0.646700
vn -0.926300 0.052500 -0.373200
vn -0.746800 0.619500 0.241800
vn -0.375400 0.811000 -0.448700
vn -0.447700 0.787300 -0.423900
vn -0.871600 0.413500 -0.263300
vn -0.301000 0.796100 0.525100
vn -0.468200 0.777500 0.419800
vn -0.452100 0.750900 0.481400
vn -0.744500 0.006100 0.667600
vn 0.927500 0.248400 -0.279200
vn 0.674500 0.692700 -0.255400
vn 0.997100 0.072000 -0.026500
vn 0.995000 -0.096400 -0.026500
vn 0.953700 -0.092400 0.286200
vn 0.955500 0.069000 0.286800
vn 0.863600 -0.383700 -0.327000
vn 0.892800 -0.427600 -0.141500
vn 0.826400 0.131700 0.547400
vn 0.959000 0.256900 0.119900
vn 0.462400 0.694400 -0.551400
vn 0.640900 0.256600 -0.723500
vn 0.446700 -0.717700 -0.534200
vn 0.392200 0.613500 -0.685400
vn 0.546700 -0.832800 -0.086600
vn 0.456500 0.749000 0.480200
vn 0.820700 -0.175600 0.543700
vn 0.726700 -0.348000 0.592300
vn -0.465000 0.699700 -0.542400
vn -0.625200 0.278100 -0.729300
vn -0.454600 -0.714900 -0.531300
vn -0.550200 0.827900 -0.109300
vn -0.912500 0.366700 -0.181200
vn -0.533900 -0.839500 -0.101000
vn -0.804200 0.045600 0.592600
vn -0.830900 -0.556400 0.001200
vn -0.008800 -0.571500 0.820600
vn 0.820400 0.411400 -0.397200
vn 0.927200 -0.167900 -0.334700
vn 0.837200 0.316600 -0.445900
vn 0.900300 -0.362800 0.240700
vn 0.385500 -0.694300 -0.607700
vn 0.547200 -0.800200 -0.245600
vn 0.911500 -0.367300 -0.185100
vn 0.198200 -0.919600 0.339300
vn 0.468600 -0.369700 0.802300
vn -0.408700 -0.382000 0.828900
vn 0.951600 -0.172400 0.254400
vn 0.696200 -0.402200 0.594600
vn -0.928400 0.319800 0.189100
vn -0.742000 0.387900 0.546800
vn -0.647300 -0.534600 -0.543300
vn -0.825700 0.524200 -0.208300
vn -0.920500 0.317100 -0.228400
vn -0.750000 -0.628600 -0.206100
vn -0.754000 0.637600 0.157900
vn -0.542500 0.655000 0.525900
vn -0.702800 -0.205200 0.681200
vn -0.312800 -0.532100 0.786800
vn 0.944500 0.000000 -0.328600
vn 0.919000 0.000000 0.394200
vn 0.967400 -0.060800 -0.245900
vn 0.547200 -0.553800 -0.627600
vn 0.843400 0.534700 -0.052000
vn 0.666600 -0.666600 -0.333700
vn 0.677100 0.676100 0.290700
vn 0.476400 0.476400 0.739000
vn 0.476400 -0.476400 0.739000
vn -0.983600 0.008100 0.180400
vn -0.335400 0.871700 0.357200
vn -0.964000 -0.116200 -0.239200
vn -0.933000 -0.252400 -0.256400
vn 0.249400 0.957500 0.144800
vn -0.711600 0.702200 -0.022200
vn -0.437600 0.143700 0.887600
vn -0.694400 -0.694400 -0.188500
vn 0.010900 0.914600 0.404200
vn -0.476400 0.476400 0.739000
vn -0.476400 -0.476400 0.739000
vn 0.948700 -0.075900 -0.306900
vn 0.956500 -0.287400 -0.049600
vn 0.934600 -0.280000 -0.219200
vn 0.848600 -0.468900 -0.245100
vn -0.575400 -0.475200 -0.665700
vn -0.264200 -0.921400 -0.284900
vn -0.250100 -0.872200 0.420400
vn -0.919400 -0.113500 0.376600
vn -0.992500 -0.119600 -0.026600
vn -0.753800 -0.301400 0.583900
vn -0.949800 -0.056300 0.307600
vn -0.006600 -0.870200 0.492600
vn -0.008000 -0.992800 -0.119400
vn -0.006500 -0.802600 -0.596500
vn -0.009500 -0.386800 -0.922100
vn -0.009400 0.356300 -0.934300
vn -0.012400 0.783100 -0.621800
vn -0.173700 0.806900 -0.564600
vn -0.518300 0.652600 -0.552700
vn -0.241900 0.522700 -0.817500
vn -0.906300 0.212600 -0.365200
vn -0.946700 -0.148200 -0.285900
vn -0.896000 -0.036100 0.442500
vn -0.960300 -0.246300 0.130800
vn -0.952200 -0.231200 0.199400
vn -0.999500 -0.002500 -0.031200
vn -0.919000 0.000000 0.394200
vn -0.679800 0.670800 0.296500
vn 0.738800 0.528800 -0.417800
vn -0.619500 -0.303700 -0.723900
vn -0.923400 -0.369200 -0.105400
vn 0.972400 -0.199400 0.121500
vn 0.863400 -0.495800 -0.094100
vn 0.932400 -0.355000 -0.067400
vn 0.998500 0.044700 0.033100
vn 0.815100 0.516700 -0.261800
vn 0.418900 0.840200 0.344300
vn 0.329800 0.515900 -0.790600
vn 0.900200 -0.319400 -0.296200
vn 0.591700 0.699100 -0.401500
vn 0.585500 0.709400 -0.392500
vn 0.611100 -0.304300 -0.730700
vn 0.522400 0.697500 0.490500
vn 0.508200 0.833800 0.215600
vn -0.961300 0.225100 -0.158600
vn -0.421300 0.830600 -0.364100
vn -0.837400 0.500600 -0.219400
vn -0.410700 0.722300 0.556500
vn -0.433700 0.694700 0.573900
vn -0.932900 -0.029300 0.359000
vn 0.912000 0.365100 -0.187100
vn 0.886200 -0.446800 -0.122700
vn 0.852400 -0.255400 0.456300
vn 0.617100 0.278600 -0.735900
vn 0.525700 -0.844600 -0.101100
vn 0.710800 -0.457900 0.533900
vn 0.688100 -0.414700 0.595500
vn -0.645700 0.259400 -0.718200
vn -0.733100 0.608200 -0.304300
vn -0.947500 0.300800 -0.108200
vn -0.552700 -0.828700 -0.088400
vn -0.960400 -0.189800 0.203900
vn -0.018100 -0.556200 0.830800
vn 0.886200 0.335200 -0.319900
vn 0.886100 -0.238300 -0.397600
vn 0.999800 -0.012300 -0.014000
vn 0.464000 -0.835700 -0.293800
vn 0.000000 -0.977500 0.211100
vn 0.647100 -0.510500 0.566300
vn -0.952500 -0.056400 0.299300
vn -0.756300 0.639500 -0.138400
vn -0.876600 0.447300 -0.177700
vn -0.893800 0.293500 0.339100
vn -0.367700 -0.343600 0.864100
vn 0.886000 -0.135300 -0.443600
vn 0.982200 -0.153400 -0.108500
vn 0.687100 0.686100 -0.239100
vn 0.661600 -0.669600 -0.337500
vn 0.676700 0.676700 0.290200
vn -0.622700 0.496000 0.605100
vn -0.964400 -0.122000 -0.234800
vn 0.011900 0.995200 -0.096900
vn -0.778700 0.620300 0.093800
vn -0.903700 -0.401700 0.148200
vn 0.000000 0.918700 0.395100
usemtl None
s 1
f 1//1 2//1 3//1
f 4//2 1//2 5//2
f 6//3 4//3 7//3
f 4//4 6//4 8//4
f 8//5 9//5 10//5
f 11//6 8//6 12//6
f 12//7 10//7 13//7
f 14//8 12//8 15//8
f 13//9 10//9 16//9
f 13//10 16//10 17//10
f 18//11 13//11 19//11
f 17//12 20//12 21//12
f 22//13 20//13 17//13
f 21//14 23//14 19//14
f 24//15 23//15 21//15
f 24//16 25//16 26//16
f 27//17 28//17 14//17
f 29//18 30//18 14//18
f 28//19 31//19 14//19
f 32//20 31//20 28//20
f 30//21 29//21 33//21
f 34//22 35//22 30//22
f 36//23 34//23 33//23
f 37//24 38//24 36//24
f 39//25 40//25 38//25
f 41//26 40//26 39//26
f 41//27 42//27 43//27
f 44//28 43//28 45//28
f 46//29 47//29 45//29
f 47//30 46//30 48//30
f 49//31 48//31 46//31
f 50//32 49//32 51//32
f 49//33 50//33 52//33
f 53//34 54//34 50//34
f 54//35 53//35 55//35
f 56//36 55//36 57//36
f 56//37 58//37 59//37
f 57//38 55//38 60//38
f 61//39 62//39 57//39
f 63//40 61//40 60//40
f 64//41 63//41 60//41
f 63//42 64//42 65//42
f 66//43 62//43 61//43
f 66//44 67//44 68//44
f 69//45 70//45 68//45
f 70//46 69//46 71//46
f 68//47 72//47 73//47
f 74//48 75//48 73//48
f 76//49 77//49 73//49
f 78//50 79//50 77//50
f 78//51 80//51 71//51
f 81//52 78//52 76//52
f 82//53 83//53 75//53
f 69//54 84//54 77//54
f 51//55 46//55 45//55
f 85//56 86//56 44//56
f 47//57 87//57 44//57
f 88//58 89//58 39//58
f 90//59 35//59 34//59
f 89//60 88//60 29//60
f 85//61 87//61 1//61
f 91//62 6//62 7//62
f 92//63 91//63 93//63
f 7//64 94//64 95//64
f 94//65 96//65 97//65
f 95//66 94//66 98//66
f 97//67 96//67 99//67
f 95//68 98//68 100//68
f 98//69 101//69 102//69
f 100//70 98//70 103//70
f 97//71 101//71 98//71
f 2//72 1//72 87//72
f 49//73 2//73 48//73
f 96//74 3//74 99//74
f 5//75 94//75 7//75
f 104//76 105//76 92//76
f 95//77 104//77 93//77
f 3//78 2//78 106//78
f 107//79 108//79 99//79
f 2//80 49//80 106//80
f 40//81 109//81 110//81
f 108//82 107//82 111//82
f 112//83 108//83 111//83
f 113//84 112//84 111//84
f 107//85 113//85 111//85
f 108//86 112//86 114//86
f 97//87 99//87 114//87
f 50//88 54//88 52//88
f 115//89 53//89 51//89
f 32//90 115//90 45//90
f 107//91 106//91 52//91
f 113//92 107//92 59//92
f 52//93 54//93 56//93
f 114//94 112//94 113//94
f 58//95 116//95 114//95
f 116//96 102//96 114//96
f 62//97 116//97 58//97
f 86//98 85//98 117//98
f 118//99 109//99 117//99
f 119//100 118//100 117//100
f 118//101 119//101 120//101
f 119//102 121//102 120//102
f 121//103 119//103 117//103
f 110//104 109//104 118//104
f 90//105 110//105 120//105
f 11//106 121//106 117//106
f 85//107 4//107 117//107
f 86//108 41//108 44//108
f 86//109 109//109 40//109
f 38//110 110//110 36//110
f 87//111 47//111 48//111
f 110//112 90//112 34//112
f 102//113 101//113 114//113
f 120//114 121//114 11//114
f 90//115 120//115 12//115
f 42//116 122//116 43//116
f 122//117 42//117 39//117
f 88//118 37//118 123//118
f 43//119 122//119 32//119
f 32//120 122//120 89//120
f 88//121 123//121 33//121
f 53//122 115//122 64//122
f 55//123 53//123 60//123
f 30//124 35//124 12//124
f 8//125 6//125 91//125
f 8//126 124//126 22//126
f 124//127 91//127 92//127
f 125//128 124//128 126//128
f 10//129 9//129 16//129
f 9//130 22//130 17//130
f 125//131 126//131 74//131
f 127//132 125//132 72//132
f 125//133 127//133 128//133
f 127//134 129//134 128//134
f 22//135 124//135 125//135
f 20//136 22//136 128//136
f 28//137 27//137 65//137
f 64//138 115//138 65//138
f 13//139 18//139 15//139
f 63//140 65//140 26//140
f 65//141 27//141 24//141
f 23//142 18//142 19//142
f 67//143 61//143 26//143
f 25//144 129//144 26//144
f 129//145 25//145 21//145
f 20//146 128//146 21//146
f 104//147 130//147 82//147
f 130//148 81//148 83//148
f 5//149 3//149 96//149
f 92//150 105//150 126//150
f 104//151 100//151 131//151
f 105//152 82//152 74//152
f 130//153 131//153 80//153
f 78//154 81//154 80//154
f 83//155 76//155 75//155
f 116//156 62//156 66//156
f 102//157 116//157 103//157
f 24//158 27//158 15//158
f 18//159 23//159 15//159
f 100//160 103//160 132//160
f 66//161 70//161 132//161
f 67//162 129//162 127//162
f 68//163 67//163 72//163
f 131//164 132//164 71//164
f 69//165 79//165 71//165
f 77//166 84//166 73//166
f 5//167 1//167 3//167
f 7//168 4//168 5//168
f 11//169 4//169 8//169
f 12//170 8//170 10//170
f 15//171 12//171 13//171
f 19//172 13//172 17//172
f 19//173 17//173 21//173
f 25//174 24//174 21//174
f 15//175 27//175 14//175
f 31//176 29//176 14//176
f 115//177 32//177 28//177
f 33//178 34//178 30//178
f 123//179 36//179 33//179
f 123//180 37//180 36//180
f 37//181 39//181 38//181
f 42//182 41//182 39//182
f 44//183 41//183 43//183
f 47//184 44//184 45//184
f 51//185 49//185 46//185
f 106//186 49//186 52//186
f 51//187 53//187 50//187
f 56//188 54//188 55//188
f 58//189 56//189 57//189
f 60//190 61//190 57//190
f 67//191 66//191 61//191
f 70//192 66//192 68//192
f 84//193 69//193 68//193
f 132//194 70//194 71//194
f 84//47 68//47 73//47
f 72//48 74//48 73//48
f 75//49 76//49 73//49
f 76//50 78//50 77//50
f 79//51 78//51 71//51
f 83//52 81//52 76//52
f 74//53 82//53 75//53
f 79//54 69//54 77//54
f 87//195 85//195 44//195
f 37//196 88//196 39//196
f 31//197 89//197 29//197
f 4//198 85//198 1//198
f 93//199 91//199 7//199
f 93//200 7//200 95//200
f 98//201 94//201 97//201
f 104//202 95//202 100//202
f 103//203 98//203 102//203
f 48//204 2//204 87//204
f 93//205 104//205 92//205
f 99//206 3//206 106//206
f 106//207 107//207 99//207
f 38//208 40//208 110//208
f 99//209 108//209 114//209
f 101//210 97//210 114//210
f 45//211 115//211 51//211
f 59//212 107//212 52//212
f 59//213 52//213 56//213
f 59//214 114//214 113//214
f 59//215 58//215 114//215
f 57//216 62//216 58//216
f 109//217 86//217 117//217
f 120//218 110//218 118//218
f 4//219 11//219 117//219
f 41//220 86//220 40//220
f 36//221 110//221 34//221
f 12//222 120//222 11//222
f 35//223 90//223 12//223
f 89//224 122//224 39//224
f 45//225 43//225 32//225
f 31//226 32//226 89//226
f 29//227 88//227 33//227
f 60//228 53//228 64//228
f 14//229 30//229 12//229
f 124//230 8//230 91//230
f 9//231 8//231 22//231
f 126//232 124//232 92//232
f 16//233 9//233 17//233
f 72//234 125//234 74//234
f 128//235 22//235 125//235
f 115//236 28//236 65//236
f 61//237 63//237 26//237
f 26//238 65//238 24//238
f 129//239 67//239 26//239
f 128//240 129//240 21//240
f 105//241 104//241 82//241
f 82//148 130//148 83//148
f 94//242 5//242 96//242
f 130//243 104//243 131//243
f 126//244 105//244 74//244
f 81//245 130//245 80//245
f 103//246 116//246 66//246
f 23//247 24//247 15//247
f 131//248 100//248 132//248
f 103//249 66//249 132//249
f 72//250 67//250 127//250
f 80//251 131//251 71//251
