# Blender v2.76 (sub 0) OBJ File: 'planetarium.blend'
# www.blender.org
o Mball.000_Mesh.001
v 0.547634 -1.079367 2.852317
v 0.593353 -1.961405 2.307197
v 0.702592 -1.821755 2.673881
v 0.069148 -1.096927 3.518811
v 0.138534 -0.620898 2.528350
v -0.155747 -0.467739 3.077524
v -0.608248 0.388520 2.530426
v 0.053703 0.924994 2.607382
v -0.011860 0.450068 3.313722
v -0.474541 1.337958 3.690605
v -0.321802 2.005703 2.388856
v -0.100461 1.931264 2.736944
v -1.413967 1.669524 2.712068
v -1.164762 1.867299 2.670030
v -1.501305 1.366293 3.831489
v -0.427397 2.482225 2.545721
v -1.376956 2.598235 1.542115
v -0.236641 2.478916 1.793883
v -1.684453 1.754741 2.636695
v -1.668486 2.124976 1.032144
v -0.280330 2.079835 1.165999
v -0.138299 2.446110 2.046013
v -1.663914 1.834775 1.852897
v -1.575479 1.327362 1.640209
v -0.982980 1.256320 0.391919
v -1.437717 0.428591 1.466097
v -1.667351 0.727283 3.473503
v -1.858937 0.666007 2.333036
v -1.466463 1.470931 3.866373
v -1.721509 1.601391 4.468270
v -2.343038 0.580769 4.387055
v -2.281854 -0.220471 3.947474
v -1.506724 0.240498 3.466588
v -1.071631 1.613630 4.924478
v -0.507883 1.817162 3.858683
v -0.396268 1.737564 4.826485
v -0.431708 1.674921 5.500312
v -1.734157 1.728270 5.517213
v -0.497936 1.465676 5.660174
v -1.405950 1.265390 5.845872
v -0.105987 -0.115485 6.370350
v -1.399678 0.273183 6.047802
v -0.268247 -0.090059 5.378856
v -0.993368 -0.716292 5.805365
v -1.011604 -1.017449 4.790714
v -0.261145 -1.060562 4.991064
v -1.725368 -1.103001 4.266500
v -0.704433 -1.551361 3.900236
v -1.147295 -1.395720 4.030979
v -0.055093 -1.478301 3.972266
v -1.180867 -1.273487 3.466145
v -0.542582 -2.519897 3.469629
v -1.155800 -1.621921 2.889491
v -1.020027 -2.223942 2.866278
v -0.457161 -2.786157 3.379686
v -1.582865 -2.292424 2.493291
v -1.668177 -1.056530 3.050243
v -1.986792 -0.964801 2.312237
v -1.851249 -1.814433 2.046853
v -1.502894 -0.408905 1.308854
v -1.416009 -1.397998 0.906229
v -1.023215 -3.004518 2.005660
v -1.063143 -0.409028 2.310058
v -1.139149 -0.319906 1.397607
v -0.711160 0.108392 1.247097
v -1.248308 0.038947 2.614853
v -1.374972 -0.043954 2.984349
v -1.200157 0.726956 2.855173
v -0.851552 0.152516 0.728001
v -0.882035 -0.594916 0.732940
v -0.951139 0.710059 -0.087496
v -1.195570 0.135407 -0.802921
v -0.583792 0.674615 -1.183058
v -0.742352 -0.213009 -1.706268
v -0.666349 -0.684924 -1.629848
v -0.504643 -1.183819 -0.221818
v -0.792281 1.054233 -1.211198
v -0.663880 0.770496 -0.094717
v 0.199904 1.019370 -1.460627
v 0.523568 1.104666 -0.005156
v -0.364503 1.038410 -1.906427
v 0.500654 0.721295 -1.525420
v 0.090702 -0.349386 -1.461235
v 0.531865 -0.180518 -1.650884
v 0.233747 -0.295578 -1.689768
v 1.039745 -0.084108 -1.843625
v 0.818117 0.912569 -1.055818
v 1.626542 0.566664 -0.865447
v 0.076888 -0.564728 4.984900
v 0.525281 -0.428611 4.416101
v -0.461804 -1.282679 3.992201
v -2.091973 0.385760 5.881361
v -1.794217 1.267688 5.597865
v -0.031099 1.600241 4.604719
v 0.483332 -0.460583 1.518424
v 0.092452 0.173347 1.275994
v 0.495134 0.478789 0.350600
v 0.417153 -0.623265 1.113095
v 0.418154 -1.140335 1.989386
v 0.524381 -0.950832 1.356253
v 0.309864 -1.836993 1.216096
v 1.024289 -2.022834 1.729903
v 0.356503 -2.317002 1.861173
v 0.820734 -1.105135 0.436726
v 0.719600 -0.506206 0.396507
v -0.447252 -1.340929 0.522733
v -0.592317 -1.784204 0.021048
v 0.540334 -2.401788 0.545970
v 0.695797 0.482297 0.575204
v -0.349601 -2.467851 1.733380
v -0.096717 -2.669830 2.353979
v 0.400021 1.160571 5.672150
v 0.307524 0.366961 5.324851
v -0.656996 -2.419538 1.687106
v -0.418284 -2.743273 1.305996
v -0.935775 -2.456190 1.507183
v -0.400106 -2.128553 1.062148
v -1.420857 -1.547055 1.058010
v 0.109821 0.325193 4.189045
v 0.499659 0.529539 5.080268
v 0.446831 0.557816 4.490592
v 0.389559 0.933213 4.309718
v 0.472561 0.624520 4.338032
v -1.889337 -0.529436 5.165132
v 0.722422 0.615265 1.553648
v 0.578089 0.433802 0.553852
v 0.266087 1.070916 0.693628
v -0.616796 1.202448 0.373319
v -0.107088 2.004560 1.140158
v -1.677058 1.369478 0.298541
v 1.724022 -0.318792 -0.918907
v 0.214414 -1.110369 -0.519592
vn 0.811600 0.029200 0.583400
vn 0.656700 0.576100 0.486700
vn 0.777300 0.574500 0.256300
vn 0.794000 0.031700 -0.607100
vn -0.846100 -0.193600 0.496600
vn 0.891100 0.333900 0.307200
vn 0.006400 0.889400 0.457000
vn 0.063000 0.962000 0.265500
vn 0.341300 -0.224800 0.912700
vn 0.099500 0.994800 0.020900
vn -0.209600 0.802100 0.559200
vn 0.090800 0.703500 -0.704800
vn 0.881200 0.368800 -0.295700
vn -0.904900 0.399700 0.146400
vn -0.987200 -0.151900 -0.048200
vn -0.903200 -0.056000 -0.425500
vn -0.967000 0.254900 -0.006400
vn -0.804000 0.411000 -0.429800
vn -0.746800 0.462000 -0.478300
vn -0.798300 0.241700 -0.551700
vn 0.100700 0.980300 -0.169800
vn -0.339700 0.940500 -0.000100
vn -0.168300 0.982300 0.082500
vn 0.030900 0.600600 0.798900
vn -0.113300 0.383600 0.916500
vn 0.607700 -0.785100 -0.119600
vn 0.653400 -0.276800 0.704600
vn -0.173300 -0.869900 0.461800
vn 0.033000 -0.586200 0.809500
vn 0.009400 0.658700 -0.752400
vn 0.015000 -0.440200 0.897800
vn -0.866500 -0.443100 0.230100
vn -0.813900 -0.204500 0.543800
vn -0.177300 -0.414500 0.892600
vn -0.920900 -0.211200 0.327500
vn -0.929600 -0.033700 -0.367000
vn -0.735500 -0.495800 -0.461700
vn -0.502500 0.835900 0.220800
vn -0.262600 0.958000 0.115400
vn -0.920600 -0.130000 -0.368200
vn -0.925600 -0.144600 -0.349700
vn -0.943700 0.166000 -0.286200
vn -0.697400 0.525600 -0.487200
vn -0.974900 0.041200 0.218600
vn -0.724800 0.636500 -0.263600
vn -0.904200 -0.206200 -0.374100
vn -0.207300 0.973100 -0.101000
vn -0.271200 0.962500 0.003900
vn 0.494600 0.629400 -0.599400
vn -0.427800 0.110000 -0.897200
vn -0.359500 0.933100 -0.005300
vn -0.371500 0.115300 -0.921200
vn 0.403500 0.913400 -0.053900
vn 0.318900 0.438400 -0.840300
vn -0.495900 -0.854300 -0.155400
vn 0.735700 -0.495800 0.461300
vn 0.742200 -0.670200 -0.000100
vn -0.199300 0.194200 0.960500
vn 0.369700 0.928500 0.033700
vn -0.906800 0.370700 0.200700
vn 0.545000 -0.781100 0.304700
vn 0.759700 0.561400 0.328100
vn 0.654100 0.586200 0.478100
vn 0.982300 -0.160600 -0.095900
vn 0.572900 0.567400 -0.591400
vn 0.829200 0.481800 0.283300
vn 0.224500 -0.773900 -0.592100
vn 0.873600 0.440100 0.207700
vn 0.576200 0.522600 -0.628400
vn 0.192800 -0.955700 0.222500
vn 0.812000 -0.277800 0.513400
vn 0.352700 0.666300 0.657000
vn 0.646000 -0.555200 0.523900
vn 0.434000 -0.802500 0.409400
vn 0.790100 0.591700 -0.160400
vn -0.737600 -0.137300 0.661100
vn 0.683900 -0.708800 0.172800
vn 0.666700 -0.740700 0.083500
vn 0.259600 -0.882200 -0.392900
vn 0.572200 -0.091700 0.815000
vn 0.937000 -0.225800 0.266400
vn -0.110300 -0.957500 -0.266600
vn -0.210000 -0.806100 0.553200
vn -0.240100 -0.808900 0.536700
vn 0.488500 -0.598400 -0.635000
vn 0.991000 -0.073700 -0.111800
vn 0.415500 -0.715100 -0.562100
vn -0.533000 -0.152300 0.832300
vn -0.368200 -0.928200 -0.052800
vn -0.250400 -0.464900 -0.849200
vn -0.538800 -0.794700 -0.279500
vn 0.462100 -0.635800 -0.618300
vn -0.817400 -0.564800 -0.113300
vn -0.488700 -0.309200 -0.815800
vn 0.371300 0.656500 0.656600
vn -0.485100 -0.853000 -0.192600
vn 0.972100 -0.182200 -0.147900
vn 0.768800 -0.378400 0.515500
vn 0.588600 -0.805200 -0.072800
vn 0.620600 -0.778600 -0.092900
vn 0.990300 0.110900 -0.083400
vn 0.921900 0.273100 0.274900
vn 0.671100 -0.714200 -0.199100
vn 0.836800 -0.298400 0.459000
vn 0.821000 0.562000 -0.100100
vn 0.670700 -0.715600 -0.195300
vn 0.837300 0.330300 -0.435700
vn 0.486000 -0.321200 0.812800
vn 0.394800 -0.399600 0.827300
vn 0.179700 0.560700 0.808300
vn -0.077600 -0.259400 0.962600
vn 0.497100 0.854400 0.151100
vn -0.383800 -0.895500 -0.225300
vn 0.873700 0.194000 -0.446200
vn 0.630100 0.609900 -0.480600
vn -0.377500 -0.885900 0.269700
vn -0.585100 -0.411500 0.698800
vn -0.525100 0.212800 0.824000
vn -0.859900 -0.486700 0.153700
vn -0.945600 -0.302800 0.119400
vn -0.991800 0.124600 -0.027000
vn -0.893900 0.234000 -0.382200
vn -0.489200 0.814300 0.312400
vn -0.123400 0.320800 -0.939100
vn 0.539300 -0.726500 0.425900
vn 0.846300 0.275200 0.456200
vn 0.123400 -0.957100 -0.262200
vn 0.859400 0.466700 -0.208800
vn -0.826400 -0.332700 0.454300
vn 0.730600 0.566100 0.381800
vn 0.872300 0.352900 0.338500
vn 0.338600 0.674200 -0.656300
vn 0.359100 0.515600 -0.778000
vn 0.153000 0.630400 -0.761100
vn 0.865000 0.451000 -0.220000
vn 0.312100 0.858200 -0.407600
vn 0.057500 -0.997400 0.043900
vn -0.926800 0.152600 -0.343200
vn -0.139200 0.370500 0.918300
vn -0.986000 0.010900 0.166300
vn -0.904000 -0.056500 -0.423800
vn -0.934400 0.356000 0.011900
vn -0.395800 -0.917900 0.029000
vn 0.043900 0.782300 0.621400
vn -0.199900 -0.565900 0.799900
vn 0.098800 0.518800 -0.849200
vn 0.790300 0.050100 0.610600
vn 0.812400 0.123800 -0.569800
vn 0.763400 0.368300 0.530700
vn 0.410400 -0.840600 -0.353600
vn 0.839500 0.106000 -0.532900
vn 0.651600 0.605900 0.456400
vn 0.270600 -0.792100 -0.547100
vn -0.299100 0.890600 -0.342500
vn 0.498100 0.631700 -0.594000
vn -0.833200 0.316700 -0.453300
vn -0.440600 0.732100 -0.519500
vn -0.915400 0.402300 0.009500
vn -0.272200 -0.956500 -0.104800
vn 0.174900 -0.978900 -0.105500
vn -0.875600 -0.480500 -0.049700
vn 0.015800 -0.323200 -0.946200
vn -0.155400 0.806500 0.570400
vn -0.040100 -0.943300 -0.329600
vn 0.263400 -0.112700 -0.958100
vn -0.763700 -0.453500 -0.459600
vn 0.888100 0.274100 -0.369000
vn 0.676500 0.718300 0.162200
vn 0.603500 -0.686500 -0.405600
vn 0.883800 0.366000 0.291500
vn -0.418000 0.659500 0.624800
vn -0.484500 0.689700 0.538100
vn 0.203900 0.819700 -0.535200
vn -0.841700 -0.386000 -0.377600
vn -0.923700 0.358200 0.135900
vn -0.750400 0.492100 -0.441200
vn -0.460800 -0.139600 -0.876500
vn -0.165600 0.981100 0.099800
vn 0.038600 0.988200 -0.148000
vn 0.034800 0.594900 0.803100
vn 0.154300 0.198000 0.968000
vn -0.324000 -0.348500 0.879500
vn -0.130500 -0.949800 0.284300
vn -0.222000 -0.868100 0.443900
vn -0.889100 -0.455400 -0.045700
vn -0.803100 -0.405200 0.436800
vn -0.628000 -0.677800 0.382300
vn -0.898900 -0.254700 0.356400
vn -0.914600 0.080900 -0.396200
vn -0.678900 0.723100 0.127200
vn -0.963600 0.041000 0.264100
vn -0.966000 0.142600 0.215500
vn -0.721300 0.442800 -0.532600
vn -0.869900 -0.487700 -0.072900
vn -0.875600 -0.482500 -0.021900
vn 0.093100 0.967500 0.235200
vn 0.034800 0.999400 -0.001300
vn 0.338500 -0.184900 -0.922600
vn -0.398700 0.916500 -0.033800
vn 0.532700 0.594500 -0.602300
vn 0.238500 0.965000 -0.109600
vn -0.798400 -0.404900 -0.445700
vn 0.643700 -0.764200 0.040600
vn -0.488700 0.412200 0.768900
vn -0.853500 0.512100 0.096300
vn 0.891300 0.000500 -0.453500
vn 0.734900 0.584600 0.343700
vn 0.928800 0.146800 0.340400
vn 0.964900 -0.247500 0.087800
vn 0.895700 0.178600 0.407200
vn 0.481400 0.431400 -0.763000
vn 0.864500 0.242100 0.440500
vn 0.954900 0.226600 0.191900
vn 0.709500 -0.684200 0.168800
vn 0.716300 -0.675500 0.175100
vn 0.135500 0.433700 0.890800
vn 0.263800 -0.852700 -0.450900
vn 0.154500 -0.728600 0.667200
vn -0.989800 0.136500 -0.041300
vn 0.015000 -0.740700 0.671700
vn -0.335100 -0.697300 0.633700
vn 0.224900 0.635600 0.738600
vn -0.307600 -0.587500 -0.748500
vn 0.129300 0.383600 -0.914400
vn 0.883800 0.435900 -0.169900
vn 0.980600 0.191900 -0.039600
vn 0.981600 -0.114600 -0.152800
vn 0.610300 -0.783000 -0.120000
vn 0.405600 0.907900 0.105700
vn 0.639900 0.557800 -0.528500
vn 0.849300 0.226400 -0.476900
vn -0.276900 -0.629500 0.726000
vn -0.257000 -0.835200 0.486200
vn -0.944900 -0.210000 0.251300
vn 0.064900 0.990800 -0.119100
vn -0.839000 0.210300 -0.501900
vn -0.117900 0.349200 -0.929600
vn 0.360900 -0.807600 0.466400
vn 0.988100 0.144500 0.053500
vn 0.551600 -0.831100 0.071200
vn 0.204300 0.977800 0.047500
vn -0.266900 0.962300 -0.051900
vn 0.866600 0.459600 -0.194200
vn -0.773200 -0.246800 -0.584100
vn -0.448200 -0.866500 -0.220000
vn -0.087300 -0.970800 0.223400
vn -0.717000 -0.607200 -0.342300
vn 0.102100 0.641100 -0.760600
vn 0.839500 -0.077000 0.537900
vn 0.420900 0.618300 -0.663800
vn 0.976500 0.147600 -0.157000
vn 0.501900 -0.823000 0.266000
vn -0.369800 0.576900 0.728300
vn 0.171900 -0.917000 -0.359900
vn -0.476600 -0.030200 -0.878600
vn -0.939900 -0.257700 0.223900
vn 0.014000 -0.978100 -0.207500
vn -0.867900 -0.495200 -0.037600
vn -0.978200 0.192100 -0.078900
vn 0.303300 -0.784400 -0.541100
s off
f 1//1 4//1 3//1
f 6//2 4//2 1//2
f 7//3 6//3 5//3
f 9//4 6//4 7//4
f 8//5 12//5 11//5
f 9//6 8//6 10//6
f 10//7 11//7 14//7
f 15//8 10//8 13//8
f 14//9 11//9 16//9
f 16//10 18//10 17//10
f 19//11 14//11 17//11
f 21//12 20//12 17//12
f 22//13 21//13 18//13
f 20//14 23//14 17//14
f 24//15 23//15 20//15
f 24//16 25//16 26//16
f 27//17 15//17 13//17
f 30//18 29//18 15//18
f 27//19 31//19 15//19
f 32//20 31//20 27//20
f 29//21 30//21 34//21
f 35//22 29//22 34//22
f 37//23 36//23 34//23
f 40//24 39//24 37//24
f 42//25 41//25 39//25
f 44//26 43//26 41//26
f 46//27 43//27 44//27
f 48//28 46//28 45//28
f 49//29 48//29 47//29
f 48//30 49//30 50//30
f 52//31 50//31 49//31
f 53//32 52//32 51//32
f 52//33 53//33 54//33
f 57//34 56//34 53//34
f 59//35 56//35 57//35
f 61//36 59//36 58//36
f 59//37 61//37 62//37
f 60//38 58//38 63//38
f 64//39 60//39 63//39
f 66//40 65//40 63//40
f 67//41 66//41 63//41
f 66//42 67//42 68//42
f 70//43 64//43 65//43
f 72//44 70//44 69//44
f 72//45 71//45 73//45
f 72//46 74//46 75//46
f 73//47 71//47 78//47
f 78//48 80//48 79//48
f 79//49 82//49 81//49
f 82//50 84//50 83//50
f 83//51 84//51 85//51
f 86//52 84//52 82//52
f 80//53 88//53 87//53
f 83//54 74//54 73//54
f 51//55 49//55 47//55
f 90//56 89//56 46//56
f 48//57 91//57 46//57
f 92//58 42//58 40//58
f 94//59 35//59 36//59
f 31//60 92//60 93//60
f 90//61 91//61 4//61
f 96//62 7//62 5//62
f 97//63 96//63 95//63
f 99//64 98//64 95//64
f 99//65 102//65 101//65
f 98//66 99//66 100//66
f 101//67 102//67 103//67
f 98//68 100//68 104//68
f 108//69 107//69 106//69
f 104//70 100//70 106//70
f 101//71 108//71 100//71
f 4//72 91//72 50//72
f 52//73 3//73 50//73
f 102//74 2//74 103//74
f 1//75 99//75 5//75
f 105//76 109//76 97//76
f 98//77 105//77 95//77
f 2//78 3//78 55//78
f 111//79 110//79 103//79
f 3//80 52//80 55//80
f 41//81 113//81 112//81
f 110//82 111//82 114//82
f 115//83 110//83 114//83
f 116//84 115//84 114//84
f 111//85 116//85 114//85
f 110//86 115//86 117//86
f 101//87 103//87 117//87
f 53//88 56//88 54//88
f 57//89 51//89 47//89
f 32//90 33//90 47//90
f 111//91 55//91 54//91
f 116//92 111//92 62//92
f 56//93 59//93 62//93
f 117//94 115//94 116//94
f 61//95 118//95 117//95
f 118//96 107//96 117//96
f 64//97 118//97 61//97
f 113//98 89//98 90//98
f 120//99 113//99 119//99
f 121//100 120//100 119//100
f 120//101 121//101 122//101
f 121//102 123//102 122//102
f 123//103 121//103 119//103
f 112//104 113//104 120//104
f 94//105 112//105 122//105
f 9//106 123//106 119//106
f 90//107 6//107 119//107
f 89//108 43//108 46//108
f 43//109 89//109 113//109
f 39//110 112//110 37//110
f 91//111 48//111 50//111
f 37//112 112//112 94//112
f 107//113 108//113 117//113
f 122//114 123//114 9//114
f 94//115 122//115 10//115
f 44//116 124//116 45//116
f 124//117 44//117 42//117
f 93//118 40//118 38//118
f 124//119 32//119 47//119
f 124//120 92//120 31//120
f 30//121 93//121 38//121
f 57//122 33//122 67//122
f 58//123 57//123 63//123
f 29//124 35//124 10//124
f 8//125 7//125 96//125
f 8//126 125//126 22//126
f 96//127 97//127 126//127
f 127//128 125//128 126//128
f 11//129 12//129 16//129
f 16//130 12//130 22//130
f 127//131 126//131 80//131
f 128//132 127//132 78//132
f 127//133 128//133 129//133
f 128//134 130//134 129//134
f 125//135 127//135 129//135
f 21//136 22//136 129//136
f 27//137 28//137 68//137
f 67//138 33//138 68//138
f 14//139 19//139 13//139
f 66//140 68//140 26//140
f 28//141 24//141 26//141
f 23//142 19//142 17//142
f 69//143 65//143 26//143
f 25//144 130//144 26//144
f 129//145 130//145 25//145
f 21//146 129//146 20//146
f 105//147 131//147 88//147
f 88//148 131//148 86//148
f 2//149 102//149 99//149
f 97//150 109//150 126//150
f 105//151 104//151 132//151
f 109//152 88//152 80//152
f 131//153 132//153 85//153
f 84//154 86//154 85//154
f 87//155 82//155 79//155
f 118//156 64//156 70//156
f 107//157 118//157 106//157
f 24//158 28//158 13//158
f 19//159 23//159 13//159
f 132//160 104//160 106//160
f 70//161 72//161 76//161
f 69//162 130//162 128//162
f 71//163 69//163 78//163
f 132//164 76//164 75//164
f 74//165 83//165 75//165
f 81//166 73//166 77//166
f 2//167 1//167 3//167
f 5//168 6//168 1//168
f 8//169 9//169 7//169
f 10//170 8//170 11//170
f 13//171 10//171 14//171
f 14//172 16//172 17//172
f 18//173 21//173 17//173
f 25//174 24//174 20//174
f 28//175 27//175 13//175
f 31//176 30//176 15//176
f 33//177 32//177 27//177
f 36//178 35//178 34//178
f 38//179 37//179 34//179
f 38//180 40//180 37//180
f 40//181 42//181 39//181
f 42//182 44//182 41//182
f 45//183 46//183 44//183
f 47//184 48//184 45//184
f 51//185 52//185 49//185
f 55//186 52//186 54//186
f 51//187 57//187 53//187
f 58//188 59//188 57//188
f 60//189 61//189 58//189
f 65//190 64//190 63//190
f 69//191 70//191 65//191
f 71//192 72//192 69//192
f 74//193 72//193 73//193
f 76//194 72//194 75//194
f 77//195 73//195 78//195
f 77//196 78//196 79//196
f 77//197 79//197 81//197
f 81//198 82//198 83//198
f 75//199 83//199 85//199
f 87//200 86//200 82//200
f 79//201 80//201 87//201
f 81//202 83//202 73//202
f 91//203 90//203 46//203
f 93//204 92//204 40//204
f 30//205 31//205 93//205
f 6//206 90//206 4//206
f 95//207 96//207 5//207
f 5//208 99//208 95//208
f 100//209 99//209 101//209
f 105//210 98//210 104//210
f 100//211 108//211 106//211
f 3//212 4//212 50//212
f 95//213 105//213 97//213
f 103//214 2//214 55//214
f 55//215 111//215 103//215
f 39//216 41//216 112//216
f 103//217 110//217 117//217
f 108//218 101//218 117//218
f 33//219 57//219 47//219
f 62//220 111//220 54//220
f 54//221 56//221 62//221
f 62//222 117//222 116//222
f 62//223 61//223 117//223
f 60//224 64//224 61//224
f 119//225 113//225 90//225
f 122//226 112//226 120//226
f 6//227 9//227 119//227
f 41//228 43//228 113//228
f 36//229 37//229 94//229
f 10//230 122//230 9//230
f 35//231 94//231 10//231
f 92//232 124//232 42//232
f 45//233 124//233 47//233
f 32//234 124//234 31//234
f 34//235 30//235 38//235
f 63//236 57//236 67//236
f 15//237 29//237 10//237
f 125//238 8//238 96//238
f 12//239 8//239 22//239
f 125//240 96//240 126//240
f 18//241 16//241 22//241
f 78//242 127//242 80//242
f 22//243 125//243 129//243
f 33//244 27//244 68//244
f 65//245 66//245 26//245
f 68//246 28//246 26//246
f 130//247 69//247 26//247
f 20//248 129//248 25//248
f 109//249 105//249 88//249
f 87//250 88//250 86//250
f 1//251 2//251 99//251
f 131//252 105//252 132//252
f 126//253 109//253 80//253
f 86//254 131//254 85//254
f 106//255 118//255 70//255
f 23//256 24//256 13//256
f 76//257 132//257 106//257
f 106//258 70//258 76//258
f 78//259 69//259 128//259
f 85//260 132//260 75//260
