# Blender v2.76 (sub 0) OBJ File: 'planetarium.blend'
# www.blender.org
o Plane.003_Plane.001
v 0.000000 0.000000 0.000000
v 0.000000 -1.435932 0.000000
v 4.456464 0.042646 0.000000
v -4.456464 -0.361223 0.000000
v 0.000000 -0.029253 -26.210915
v 0.000000 -0.286158 26.174412
v -3.342348 -0.179492 0.000000
v 0.000000 -0.179492 25.580349
v 3.342348 -0.179492 0.000000
v 0.000000 -0.179492 -25.580349
v -3.342348 -1.256441 0.000000
v 0.000000 -1.256441 25.580349
v 3.342348 -1.256441 0.000000
v 0.000000 -1.256441 -25.580349
v 3.342348 0.731359 -25.580349
v 3.342348 0.474455 25.580349
v -3.342348 0.070585 25.580349
v -3.342348 0.327490 -25.580349
v -2.475813 -0.319096 18.948408
v 2.475813 0.112712 18.948408
v -2.475813 -0.319096 -18.948408
v 2.475813 0.369617 -18.948408
v -2.475813 -0.428123 -18.948408
v -2.475813 -0.685028 18.948408
v 2.475813 -1.116836 18.948408
v 2.475813 -1.116836 -18.948408
vn 0.075000 -0.997200 -0.007000
vn 0.053600 -0.998500 0.009800
vn 0.198900 -0.980000 0.006900
vn -0.053600 -0.998500 0.012900
vn 0.053600 0.998000 -0.032500
vn -0.075000 0.997200 -0.007000
vn -0.053600 0.998500 0.009800
vn 0.333200 0.942800 0.006600
vn 0.211200 -0.977100 0.025700
vn 0.195400 -0.980000 -0.037300
vn -0.821200 0.568300 0.051100
vn -0.758500 0.650500 -0.039500
vn -0.375100 -0.926100 -0.041300
vn 0.161000 -0.986900 -0.014600
vn 0.486400 0.873000 -0.035900
vn 0.625100 0.778000 0.062600
vn 0.262900 -0.964700 -0.018300
vn -0.149500 -0.985800 -0.076600
vn 0.427800 0.902700 0.047000
vn -0.503700 0.846900 0.170200
vn -0.074500 -0.996000 0.048800
vn 0.191900 -0.981000 0.028400
vn -0.454600 0.877800 -0.151200
vn 0.368400 0.927900 -0.057600
vn 0.053600 -0.998500 -0.009800
vn 0.075000 -0.997200 0.007000
vn -0.053600 -0.998200 -0.026500
vn 0.098700 -0.995100 -0.007000
vn 0.242200 0.970200 -0.006800
vn -0.053600 0.998500 -0.009800
vn -0.075000 0.997200 0.007000
vn 0.053600 0.997500 0.046100
vn 0.195500 -0.980400 0.024100
vn 0.156500 -0.987100 -0.033400
vn -0.758500 0.650500 0.039500
vn -0.787300 0.614900 -0.044700
vn 0.161000 -0.986900 0.014600
vn -0.233600 -0.972000 0.026600
vn 0.625500 0.778500 -0.052100
vn 0.446400 0.893800 0.043500
vn 0.256200 -0.940300 -0.224000
vn -0.146000 -0.962400 -0.229300
vn 0.211700 0.446700 0.869300
vn -0.262300 0.441000 0.858300
vn -0.073400 -0.981600 -0.176300
vn 0.189100 -0.966500 -0.173500
vn -0.261000 0.504100 -0.823300
vn 0.203000 0.511300 -0.835100
s off
f 1//1 8//1 19//1
f 1//2 7//2 21//2
f 1//3 10//3 22//3
f 1//4 9//4 20//4
f 2//5 11//5 24//5
f 2//6 12//6 25//6
f 2//7 13//7 26//7
f 2//8 14//8 23//8
f 3//9 16//9 20//9
f 3//10 9//10 22//10
f 3//11 15//11 26//11
f 3//12 13//12 25//12
f 4//13 18//13 21//13
f 4//14 7//14 19//14
f 4//15 17//15 24//15
f 4//16 11//16 23//16
f 15//17 22//17 10//17
f 10//18 21//18 18//18
f 18//19 23//19 14//19
f 14//20 26//20 15//20
f 17//21 19//21 8//21
f 8//22 20//22 16//22
f 16//23 25//23 12//23
f 12//24 24//24 17//24
f 7//25 1//25 19//25
f 10//26 1//26 21//26
f 9//27 1//27 22//27
f 8//28 1//28 20//28
f 12//29 2//29 24//29
f 13//30 2//30 25//30
f 14//31 2//31 26//31
f 11//32 2//32 23//32
f 9//33 3//33 20//33
f 15//34 3//34 22//34
f 13//35 3//35 26//35
f 16//36 3//36 25//36
f 7//37 4//37 21//37
f 17//38 4//38 19//38
f 11//39 4//39 24//39
f 18//40 4//40 23//40
f 5//41 15//41 10//41
f 5//42 10//42 18//42
f 5//43 18//43 14//43
f 5//44 14//44 15//44
f 6//45 17//45 8//45
f 6//46 8//46 16//46
f 6//47 16//47 12//47
f 6//48 12//48 17//48
