# Blender v2.76 (sub 0) OBJ File: 'planetarium.blend'
# www.blender.org
o Cube.012_Cube.016
v -18.254301 0.000000 0.000000
v 8.564331 1.780579 -20.471554
v 22.563692 2.091709 0.000000
v 0.206928 0.000000 27.834738
v -1.252572 0.732132 0.000000
v -10.716968 0.000000 26.732328
v -13.167516 1.232441 0.000000
v -11.458286 1.780579 -14.452236
v -17.159359 -0.750000 3.605711
v 1.610688 1.216751 -13.097225
v 14.288191 1.780579 -14.452237
v 8.564331 -0.750000 -14.452237
v 18.348036 1.699192 0.000000
v 3.407705 2.091709 26.732328
v 18.348036 -0.750000 0.000000
v -3.742902 2.569285 25.760864
v -0.163769 -3.319594 26.732328
v -10.337522 -2.458959 25.874897
v -12.046751 2.458959 24.903433
v -10.606665 -0.555556 -9.770546
v -12.315895 1.022307 -9.701648
v 4.010261 -2.458959 25.874897
v 2.577874 2.458959 24.903433
v 12.804228 -0.555556 -9.770547
v 12.804228 1.022307 -9.701649
v 3.370863 -9.430984 3.377139
v -7.535457 -5.202484 4.496432
v 5.186438 -5.202484 -4.553219
v 8.794616 -5.202484 2.689448
v 0.280921 -7.772079 16.086220
v -5.703133 -5.008039 -2.207013
v -4.398052 -6.911443 15.656523
v 7.594797 -5.008039 -2.207014
v 2.200584 -6.911443 15.656523
v -7.526513 -7.334270 4.988008
v 4.303973 -7.334270 1.342418
v 8.803559 -7.334270 4.260077
v 0.289865 -9.903865 9.656877
v -4.512888 -7.139826 2.287570
v -4.389108 -9.043230 9.483776
v 6.253928 -7.139826 2.287570
v 2.209528 -9.043230 9.483776
v -5.707269 -9.180984 3.377139
v 3.893696 -9.180984 1.902533
v 7.545311 -9.180984 3.082698
v 0.667312 -11.750579 5.265652
v -3.261579 -8.986540 2.284838
v -3.161125 -10.889944 5.195635
v 5.476171 -8.986540 2.284838
v 2.591440 -10.889944 5.195635
vn -0.917000 -0.303600 0.258600
vn -0.235300 0.971000 -0.041700
vn -0.472500 -0.819900 -0.323200
vn -0.933700 -0.237500 0.267800
vn 0.025800 0.986400 0.162100
vn -0.028000 0.988400 0.149000
vn 0.384200 -0.869000 -0.311800
vn -0.113400 -0.897100 -0.427000
vn -0.199700 0.975400 0.093300
vn 0.207100 0.973100 0.101400
vn 0.873800 0.024200 0.485800
vn 0.530200 -0.786600 -0.316500
vn -0.421100 0.833200 0.358400
vn -0.092400 0.561600 0.822200
vn -0.094400 -0.340700 0.935400
vn 0.254800 -0.330300 0.908800
vn 0.349500 -0.892600 -0.284800
vn 0.261200 -0.886600 0.381700
vn -0.418200 -0.908100 -0.021500
vn 0.547700 -0.798200 0.250800
vn 0.007900 0.997500 -0.070400
vn -0.049200 0.997900 -0.041500
vn -0.005200 0.999300 0.035800
vn 0.041900 0.997800 -0.051000
vn 0.259300 -0.900300 -0.349700
vn 0.450100 -0.843900 0.292100
vn -0.182800 -0.929400 0.320700
vn -0.787600 0.135300 0.601100
vn 0.388200 -0.912200 -0.131300
vn -0.438600 -0.869400 -0.227500
vn -0.116500 -0.890300 -0.440200
vn -0.107900 -0.932800 0.343800
vn -0.633500 -0.758300 0.153900
vn -0.058800 -0.277800 -0.958800
vn 0.613700 0.082400 -0.785200
vn 0.388400 -0.837000 0.385400
vn -0.625500 -0.756000 -0.192900
vn 0.444400 -0.850100 0.282500
vn 0.500800 -0.512000 -0.697800
vn -0.092200 -0.931900 -0.350800
vn -0.108200 -0.548800 -0.828900
vn -0.026800 -0.972100 -0.233000
vn 0.148200 -0.982400 -0.114000
vn 0.002700 -0.780500 -0.625100
vn -0.182100 -0.921000 0.344500
vn 0.502000 -0.777200 0.379400
vn 0.443500 -0.185500 -0.876900
vn -0.377400 -0.254400 -0.890400
vn -0.235300 0.971200 -0.037200
vn 0.122700 0.976400 0.178000
vn -0.234900 -0.963400 -0.129100
vn -0.957700 -0.100000 0.270000
vn 0.031900 0.993800 0.106100
vn -0.040300 0.998500 0.038300
vn 0.377400 -0.853700 -0.358900
vn -0.115700 -0.915700 -0.384900
vn -0.092700 0.995600 -0.016500
vn -0.092500 0.993500 -0.066300
vn 0.518900 -0.769800 0.371800
vn 0.487500 -0.833100 -0.261200
vn 0.105900 0.718000 0.687900
vn -0.084200 0.544200 0.834700
vn -0.105400 -0.302800 0.947200
vn 0.392400 -0.119900 0.911900
vn 0.351800 -0.892700 -0.281500
vn 0.444800 -0.847200 0.290400
vn -0.498100 -0.862800 0.086400
vn 0.445000 -0.888900 0.109100
vn -0.049200 0.996900 -0.061600
vn 0.005800 0.999300 0.038200
vn 0.041900 0.999000 -0.018000
vn -0.005800 0.997400 -0.071700
vn 0.339900 -0.899500 -0.274400
vn 0.818100 0.343300 0.461300
vn -0.199400 -0.930200 0.308200
vn -0.857800 -0.486200 0.166700
vn 0.400000 -0.883300 -0.244500
vn -0.405500 -0.903800 -0.137000
vn -0.112500 -0.886500 -0.448900
vn -0.200800 -0.906700 0.370800
vn -0.623300 -0.767100 0.151900
vn -0.107900 -0.071600 -0.991600
vn 0.344300 -0.143600 -0.927800
vn 0.405600 -0.825800 0.391800
vn -0.651000 -0.173100 -0.739000
vn 0.412800 -0.860800 0.297900
vn 0.614300 -0.768000 -0.181000
vn -0.064400 -0.908100 -0.413700
vn -0.020500 -0.742700 -0.669300
vn -0.036300 -0.983100 -0.179500
vn 0.034200 -0.947000 -0.319400
vn 0.339500 -0.799300 -0.495800
vn -0.210600 -0.907500 0.363500
vn 0.473400 -0.679700 0.560200
vn 0.259900 -0.332700 -0.906500
vn -0.667100 -0.007300 -0.745000
s off
f 1//1 6//1 19//1
f 1//2 7//2 21//2
f 1//3 8//3 20//3
f 9//4 18//4 6//4
f 8//5 21//5 10//5
f 10//6 25//6 11//6
f 11//7 24//7 12//7
f 12//8 20//8 8//8
f 3//9 11//9 25//9
f 13//10 23//10 14//10
f 14//11 22//11 15//11
f 3//12 15//12 24//12
f 4//13 14//13 23//13
f 16//14 19//14 6//14
f 4//15 6//15 18//15
f 4//16 17//16 22//16
f 24//17 33//17 28//17
f 22//18 17//18 30//18
f 9//19 27//19 32//19
f 15//20 22//20 34//20
f 5//21 16//21 23//21
f 5//22 13//22 25//22
f 5//23 10//23 21//23
f 5//24 7//24 19//24
f 33//25 41//25 36//25
f 34//26 42//26 37//26
f 32//27 40//27 38//27
f 27//28 35//28 40//28
f 15//29 29//29 33//29
f 9//30 20//30 31//30
f 20//31 12//31 28//31
f 17//32 18//32 32//32
f 40//33 35//33 43//33
f 36//34 44//34 47//34
f 41//35 37//35 45//35
f 38//36 46//36 50//36
f 27//37 31//37 39//37
f 34//38 30//38 38//38
f 29//39 37//39 41//39
f 31//40 28//40 36//40
f 26//41 46//41 48//41
f 26//42 43//42 47//42
f 26//43 44//43 49//43
f 26//44 45//44 50//44
f 38//45 40//45 48//45
f 37//46 42//46 50//46
f 36//47 41//47 49//47
f 39//48 47//48 43//48
f 7//49 1//49 19//49
f 8//50 1//50 21//50
f 9//51 1//51 20//51
f 1//52 9//52 6//52
f 2//53 8//53 10//53
f 2//54 10//54 11//54
f 2//55 11//55 12//55
f 2//56 12//56 8//56
f 13//57 3//57 25//57
f 3//58 13//58 14//58
f 3//59 14//59 15//59
f 11//60 3//60 24//60
f 16//61 4//61 23//61
f 4//62 16//62 6//62
f 17//63 4//63 18//63
f 14//64 4//64 22//64
f 12//65 24//65 28//65
f 34//66 22//66 30//66
f 18//67 9//67 32//67
f 29//68 15//68 34//68
f 13//69 5//69 23//69
f 10//70 5//70 25//70
f 7//71 5//71 21//71
f 16//72 5//72 19//72
f 28//73 33//73 36//73
f 29//74 34//74 37//74
f 30//75 32//75 38//75
f 32//76 27//76 40//76
f 24//77 15//77 33//77
f 27//78 9//78 31//78
f 31//79 20//79 28//79
f 30//80 17//80 32//80
f 48//81 40//81 43//81
f 39//82 36//82 47//82
f 49//83 41//83 45//83
f 42//84 38//84 50//84
f 35//85 27//85 39//85
f 42//86 34//86 38//86
f 33//87 29//87 41//87
f 39//88 31//88 36//88
f 43//89 26//89 48//89
f 44//90 26//90 47//90
f 45//91 26//91 49//91
f 46//92 26//92 50//92
f 46//93 38//93 48//93
f 45//94 37//94 50//94
f 44//95 36//95 49//95
f 35//96 39//96 43//96
