# Blender v2.76 (sub 0) OBJ File: 'level1.blend'
# www.blender.org
o diamant_dmesh
v -2.763233 1.853430 -0.389759
v -2.749032 1.853430 -0.318362
v -2.708588 1.853430 -0.257834
v -2.648061 1.853430 -0.217391
v -2.576663 1.853430 -0.203189
v -2.505266 1.853430 -0.217391
v -2.444739 1.853430 -0.257834
v -2.404295 1.853430 -0.318362
v -2.390094 1.853430 -0.389759
v -2.404295 1.853430 -0.461156
v -2.444739 1.853430 -0.521684
v -2.505266 1.853430 -0.562127
v -2.576663 1.853430 -0.576329
v -2.648061 1.853430 -0.562127
v -2.708588 1.853430 -0.521684
v -2.749032 1.853430 -0.461156
v -2.763233 1.853430 -0.389759
v -2.749032 1.853430 -0.318362
v -2.708588 1.853430 -0.257834
v -2.648061 1.853430 -0.217391
v -2.576663 1.853430 -0.203189
v -2.505266 1.853430 -0.217391
v -2.444739 1.853430 -0.257834
v -2.404295 1.853430 -0.318362
v -2.390094 1.853430 -0.389759
v -2.404295 1.853430 -0.461156
v -2.444739 1.853430 -0.521684
v -2.505266 1.853430 -0.562127
v -2.576663 1.853430 -0.576329
v -2.648061 1.853430 -0.562127
v -2.708588 1.853430 -0.521684
v -2.749032 1.853430 -0.461156
v -2.697468 1.808094 -0.339720
v -2.626702 1.808094 -0.268955
v -2.526625 1.808094 -0.268955
v -2.455859 1.808094 -0.339720
v -2.455859 1.808094 -0.439798
v -2.526625 1.808094 -0.510563
v -2.626702 1.808094 -0.510563
v -2.697468 1.808094 -0.439798
v -2.675545 1.792982 -0.389759
v -2.646584 1.792982 -0.319839
v -2.576663 1.792982 -0.290877
v -2.506743 1.792982 -0.319839
v -2.477782 1.792982 -0.389759
v -2.506743 1.792982 -0.459679
v -2.576663 1.792982 -0.488641
v -2.646584 1.792982 -0.459679
v -2.651291 1.949924 -0.358847
v -2.607575 1.949924 -0.315131
v -2.545752 1.949924 -0.315131
v -2.502036 1.949924 -0.358847
v -2.502036 1.949924 -0.420671
v -2.545752 1.949924 -0.464387
v -2.607575 1.949924 -0.464387
v -2.651291 1.949924 -0.420671
v -2.576663 2.014253 -0.389759
vn 0.000000 0.000000 1.000000
vn -0.625600 -0.770200 -0.124400
vn -0.530400 -0.770200 -0.354400
vn -0.530400 -0.770200 0.354400
vn -0.625600 -0.770200 0.124400
vn -0.124400 -0.770200 0.625600
vn -0.354400 -0.770200 0.530400
vn 0.354400 -0.770200 0.530400
vn 0.124400 -0.770200 0.625600
vn 0.625600 -0.770200 0.124400
vn 0.530400 -0.770200 0.354400
vn 0.530400 -0.770200 -0.354400
vn 0.625600 -0.770200 -0.124400
vn 0.124400 -0.770200 -0.625600
vn 0.354400 -0.770200 -0.530400
vn -0.354400 -0.770200 -0.530400
vn -0.124400 -0.770200 -0.625600
vn -0.330800 -0.933700 0.137000
vn -0.401300 -0.823300 0.401300
vn -0.137000 -0.933700 0.330800
vn 0.000000 -0.823300 0.567600
vn 0.137000 -0.933700 0.330800
vn 0.401300 -0.823300 0.401300
vn 0.330800 -0.933700 0.137000
vn 0.567600 -0.823300 0.000000
vn 0.330800 -0.933700 -0.137000
vn 0.401300 -0.823300 -0.401300
vn 0.137000 -0.933700 -0.330800
vn -0.000000 -0.823300 -0.567600
vn -0.137000 -0.933700 -0.330800
vn -0.401300 -0.823300 -0.401300
vn -0.330800 -0.933700 -0.137000
vn -0.567600 -0.823300 0.000000
vn 0.000000 -1.000000 0.000000
vn -0.667900 0.732300 0.132900
vn -0.667900 0.732300 -0.132900
vn -0.378300 0.732300 0.566200
vn -0.566200 0.732300 0.378300
vn 0.132900 0.732300 0.667900
vn -0.132900 0.732300 0.667900
vn 0.566200 0.732300 0.378300
vn 0.378300 0.732300 0.566200
vn 0.667900 0.732300 -0.132900
vn 0.667900 0.732300 0.132900
vn 0.378300 0.732300 -0.566200
vn 0.566200 0.732300 -0.378300
vn -0.132900 0.732300 -0.667900
vn 0.132900 0.732300 -0.667900
vn -0.566200 0.732300 -0.378300
vn -0.378300 0.732300 -0.566200
vn -0.652900 0.757400 0.000000
vn -0.461700 0.757400 0.461700
vn 0.000000 0.757400 0.652900
vn 0.461700 0.757400 0.461700
vn 0.652900 0.757400 0.000000
vn 0.461700 0.757400 -0.461700
vn 0.000000 0.757400 -0.652900
vn -0.461700 0.757400 -0.461700
s off
f 1//1 17//1 18//1
f 2//1 18//1 19//1
f 3//1 19//1 20//1
f 4//1 20//1 21//1
f 5//1 21//1 22//1
f 6//1 22//1 23//1
f 7//1 23//1 24//1
f 8//1 24//1 25//1
f 9//1 25//1 26//1
f 10//1 26//1 27//1
f 11//1 27//1 28//1
f 12//1 28//1 29//1
f 13//1 29//1 30//1
f 14//1 30//1 31//1
f 15//1 31//1 32//1
f 16//1 32//1 17//1
f 17//2 32//2 40//2
f 32//3 31//3 40//3
f 18//4 33//4 19//4
f 18//5 17//5 33//5
f 20//6 34//6 21//6
f 20//7 19//7 34//7
f 22//8 35//8 23//8
f 22//9 21//9 35//9
f 24//10 36//10 25//10
f 24//11 23//11 36//11
f 26//12 37//12 27//12
f 26//13 25//13 37//13
f 28//14 38//14 29//14
f 28//15 27//15 38//15
f 30//16 39//16 31//16
f 30//17 29//17 39//17
f 41//18 42//18 33//18
f 42//19 34//19 19//19
f 42//20 43//20 34//20
f 43//21 35//21 21//21
f 43//22 44//22 35//22
f 44//23 36//23 23//23
f 44//24 45//24 36//24
f 45//25 37//25 25//25
f 45//26 46//26 37//26
f 46//27 38//27 27//27
f 46//28 47//28 38//28
f 47//29 39//29 29//29
f 47//30 48//30 39//30
f 48//31 40//31 31//31
f 48//32 41//32 40//32
f 17//33 40//33 41//33
f 46//34 44//34 42//34
f 1//35 2//35 49//35
f 1//36 56//36 16//36
f 3//37 4//37 50//37
f 3//38 49//38 2//38
f 5//39 6//39 51//39
f 5//40 50//40 4//40
f 7//41 8//41 52//41
f 7//42 51//42 6//42
f 9//43 10//43 53//43
f 9//44 52//44 8//44
f 11//45 12//45 54//45
f 11//46 53//46 10//46
f 13//47 14//47 55//47
f 13//48 54//48 12//48
f 15//49 16//49 56//49
f 15//50 55//50 14//50
f 49//51 57//51 56//51
f 50//52 57//52 49//52
f 51//53 57//53 50//53
f 52//54 57//54 51//54
f 53//55 57//55 52//55
f 54//56 57//56 53//56
f 55//57 57//57 54//57
f 56//58 57//58 55//58
f 2//1 1//1 18//1
f 3//1 2//1 19//1
f 4//1 3//1 20//1
f 5//1 4//1 21//1
f 6//1 5//1 22//1
f 7//1 6//1 23//1
f 8//1 7//1 24//1
f 9//1 8//1 25//1
f 10//1 9//1 26//1
f 11//1 10//1 27//1
f 12//1 11//1 28//1
f 13//1 12//1 29//1
f 14//1 13//1 30//1
f 15//1 14//1 31//1
f 16//1 15//1 32//1
f 1//1 16//1 17//1
f 33//19 42//19 19//19
f 34//21 43//21 21//21
f 35//23 44//23 23//23
f 36//25 45//25 25//25
f 37//27 46//27 27//27
f 38//29 47//29 29//29
f 39//31 48//31 31//31
f 33//33 17//33 41//33
f 42//34 41//34 48//34
f 48//34 47//34 46//34
f 46//34 45//34 44//34
f 44//34 43//34 42//34
f 42//34 48//34 46//34
f 1//51 49//51 56//51
f 3//52 50//52 49//52
f 5//53 51//53 50//53
f 7//54 52//54 51//54
f 9//55 53//55 52//55
f 11//56 54//56 53//56
f 13//57 55//57 54//57
f 15//58 56//58 55//58
