# Blender v2.76 (sub 0) OBJ File: 'level1.blend'
# www.blender.org
o MedUp_Icosphere.001
v -2.860815 5.129703 2.267591
v -2.874972 5.129720 -2.132828
v 1.305711 5.129703 -3.506063
v 3.903623 5.129704 0.045638
v -0.984872 8.872990 3.621354
v -3.582784 8.872989 0.069652
v -1.007753 8.872989 -3.498630
v 3.181653 8.872990 -2.152300
v 3.195811 8.872972 2.248119
v 0.160419 11.186410 0.057645
v -0.950565 4.801106 -3.324576
v 2.631221 7.001346 3.435500
v 4.144781 7.001346 1.338124
v -2.288608 7.001346 3.451320
v 0.173869 7.001346 4.242688
v -3.823942 7.001346 -1.222833
v -3.815638 7.001346 1.363682
v 0.146970 7.001346 -4.127398
v -2.310382 7.001346 -3.320210
v 4.136477 7.001346 -1.248392
v 2.609447 7.001346 -3.336030
v 1.271404 9.201586 3.439867
v -2.712963 9.201591 2.159395
v -2.726403 9.201584 -2.025615
v 1.249619 9.201591 -3.331650
v 3.720417 9.201586 0.046213
v -0.512761 10.561389 2.152325
v 1.944575 10.561378 1.345172
v -2.039765 10.561388 0.064703
v -0.526210 10.561388 -2.032665
v 1.936243 10.561389 -1.241318
v -2.681134 5.157890 2.136159
v -2.694449 5.157908 -2.002555
v 1.237598 5.157890 -3.294120
v 3.681004 5.157892 0.046352
v -0.926382 8.755472 3.439364
v -3.391627 8.755470 0.069037
v -0.945117 8.772639 -3.307949
v 3.027368 8.755472 -2.039440
v 3.040800 8.755454 2.136257
v 0.160419 10.962009 0.057645
v -0.881778 4.843197 -3.115175
v 2.510703 6.927213 3.261340
v 3.923307 6.970857 1.318770
v -2.121750 6.970857 3.304410
v 0.167641 6.927213 4.030987
v -3.632665 6.970857 -1.109535
v -3.625090 6.970857 1.249164
v 0.146548 6.986095 -3.903520
v -2.177286 6.986095 -3.140190
v 3.915138 6.970857 -1.227616
v 2.522602 6.970857 -3.131379
v 1.214981 9.068666 3.268103
v -2.558901 9.083622 2.046704
v -2.571615 9.083614 -1.913912
v 1.191219 9.083622 -3.149925
v 3.529538 9.083616 0.046827
v -0.476666 10.370504 2.040012
v 1.848914 10.370493 1.276138
v -1.921797 10.370503 0.064324
v -0.489395 10.370503 -1.920589
v 1.841027 10.370504 -1.171670
vn -0.800700 -0.125600 0.585700
vn -0.804500 -0.125600 -0.580500
vn 0.303500 -0.125600 -0.944500
vn 0.992100 -0.125600 -0.003200
vn -0.036100 0.661700 0.748900
vn -0.723400 0.661700 0.197100
vn -0.411000 0.661700 -0.627100
vn 0.469400 0.661700 -0.584600
vn 0.701100 0.661700 0.265800
vn 0.331300 0.943500 -0.001100
vn 0.607100 0.794700 -0.002000
vn 0.699400 0.661700 -0.270300
vn 0.101400 0.943500 -0.315400
vn 0.185700 0.794700 -0.577900
vn -0.040900 0.661700 -0.748700
vn -0.268700 0.943500 -0.193900
vn -0.492300 0.794700 -0.355200
vn -0.724700 0.661700 -0.192400
vn -0.267400 0.943500 0.195600
vn -0.490000 0.794700 0.358400
vn -0.406900 0.661700 0.629700
vn 0.103400 0.943500 0.314800
vn 0.189400 0.794700 0.576700
vn 0.473200 0.661700 0.581600
vn 0.905800 0.330400 0.265100
vn 0.982200 0.187600 -0.003200
vn 0.904100 0.330400 -0.270900
vn 0.532100 0.330400 -0.779600
vn 0.300500 0.187600 -0.935100
vn 0.021700 0.330400 -0.943600
vn -0.577000 0.330400 -0.746900
vn -0.796500 0.187600 -0.574800
vn -0.890700 0.330400 -0.312200
vn -0.888700 0.330400 0.317900
vn -0.792800 0.187600 0.579900
vn -0.572200 0.330400 0.750600
vn 0.027800 0.330400 0.943400
vn 0.537100 0.330400 0.776100
vn -0.309600 0.125600 -0.942500
vn -0.306500 -0.187600 -0.933200
vn 0.800200 0.130300 -0.585400
vn 0.805200 0.132000 0.578100
vn -0.305600 0.132000 0.943000
vn -0.991500 0.130300 0.003200
vn 0.036600 -0.660200 -0.750200
vn 0.725000 -0.660400 -0.195700
vn 0.411000 -0.661700 0.627100
vn -0.471500 -0.660400 0.584500
vn -0.701600 -0.660400 -0.267800
vn -0.331300 -0.943500 0.001100
vn -0.607100 -0.794700 0.002000
vn -0.699800 -0.660400 0.272300
vn -0.101400 -0.943500 0.315400
vn -0.185700 -0.794700 0.577900
vn 0.040900 -0.661700 0.748600
vn 0.268700 -0.943500 0.193900
vn 0.492300 -0.794700 0.355200
vn 0.726200 -0.660400 0.191000
vn 0.267400 -0.943500 -0.195600
vn 0.490000 -0.794700 -0.358400
vn 0.406100 -0.660400 -0.631600
vn -0.103400 -0.943500 -0.314800
vn -0.190100 -0.793000 -0.578800
vn -0.474300 -0.660200 -0.582400
vn -0.907200 -0.327800 -0.263700
vn -0.983400 -0.181400 0.003200
vn -0.905500 -0.327800 0.269500
vn -0.531100 -0.327800 0.781300
vn -0.304900 -0.183900 0.934500
vn -0.022100 -0.328300 0.944300
vn 0.577700 -0.328300 0.747300
vn 0.799600 -0.183900 0.571700
vn 0.891000 -0.327800 0.314200
vn 0.888900 -0.327800 -0.319900
vn 0.793700 -0.181400 -0.580600
vn 0.574100 -0.327800 -0.750300
vn -0.028400 -0.323100 -0.945900
vn -0.538000 -0.323100 -0.778500
vn 0.309600 -0.125000 0.942600
vn 0.306000 0.195900 0.931700
vn -0.212200 -0.512200 0.832200
vn 0.542400 -0.566900 0.620000
vn -0.857100 -0.512200 0.055300
vn -0.422000 -0.566900 0.707500
vn -0.317500 -0.512200 -0.798000
vn -0.814300 -0.548900 -0.188700
vn -0.074400 -0.566900 -0.820400
vn 0.725900 -0.512200 0.459000
vn 0.809900 -0.459400 -0.364900
vn 0.006400 -0.568800 0.822500
vn 0.553300 -0.424800 0.716600
vn -0.510500 -0.424800 0.747600
vn -0.488600 -0.568800 -0.661600
vn 0.657000 -0.535100 -0.531100
vn -0.026400 -0.424800 -0.904900
vn 0.784200 -0.568800 0.248000
vn 0.907900 -0.403200 0.114500
vn -0.700700 -0.434200 0.566200
vn 0.890200 -0.454700 -0.029300
vn -0.800400 -0.479700 0.359400
vn -0.020600 -0.424800 0.905100
vn 0.482500 -0.568800 0.666100
vn -0.868500 -0.459400 0.186400
vn -0.484400 -0.568800 0.664700
vn -0.515300 -0.424800 -0.744300
vn -0.843900 -0.535100 -0.038000
vn 0.001100 -0.568800 -0.822500
vn 0.854400 -0.424800 0.299300
vn 0.722900 -0.512200 -0.463700
vn -0.069100 -0.566900 0.820900
vn 0.664400 -0.512200 0.544300
vn -0.312300 -0.512200 0.800000
vn -0.426600 -0.566900 -0.704700
vn 0.543800 -0.548900 -0.634800
vn -0.217600 -0.512200 -0.830800
vn 0.759300 -0.566900 0.319400
vn 0.899900 -0.434200 0.040400
vn -0.663200 -0.403300 0.630600
vn 0.857600 -0.479700 -0.185300
vn -0.734100 -0.454700 0.504300
s off
f 1//1 14//1 17//1
f 2//2 16//2 19//2
f 3//3 18//3 21//3
f 4//4 20//4 13//4
f 5//5 22//5 27//5
f 6//6 23//6 29//6
f 7//7 24//7 30//7
f 8//8 25//8 31//8
f 9//9 26//9 28//9
f 28//10 31//10 10//10
f 28//11 26//11 31//11
f 26//12 8//12 31//12
f 31//13 30//13 10//13
f 31//14 25//14 30//14
f 25//15 7//15 30//15
f 30//16 29//16 10//16
f 30//17 24//17 29//17
f 24//18 6//18 29//18
f 29//19 27//19 10//19
f 29//20 23//20 27//20
f 23//21 5//21 27//21
f 27//22 28//22 10//22
f 27//23 22//23 28//23
f 22//24 9//24 28//24
f 13//25 26//25 9//25
f 13//26 20//26 26//26
f 20//27 8//27 26//27
f 21//28 25//28 8//28
f 21//29 18//29 25//29
f 18//30 7//30 25//30
f 19//31 24//31 7//31
f 19//32 16//32 24//32
f 16//33 6//33 24//33
f 17//34 23//34 6//34
f 17//35 14//35 23//35
f 14//36 5//36 23//36
f 15//37 22//37 5//37
f 12//38 9//38 22//38
f 18//39 19//39 7//39
f 18//40 11//40 19//40
f 48//41 45//41 32//41
f 50//42 47//42 33//42
f 52//43 49//43 34//43
f 44//44 51//44 35//44
f 58//45 53//45 36//45
f 60//46 54//46 37//46
f 61//47 55//47 38//47
f 62//48 56//48 39//48
f 59//49 57//49 40//49
f 41//50 62//50 59//50
f 62//51 57//51 59//51
f 62//52 39//52 57//52
f 41//53 61//53 62//53
f 61//54 56//54 62//54
f 61//55 38//55 56//55
f 41//56 60//56 61//56
f 60//57 55//57 61//57
f 60//58 37//58 55//58
f 41//59 58//59 60//59
f 58//60 54//60 60//60
f 58//61 36//61 54//61
f 41//62 59//62 58//62
f 59//63 53//63 58//63
f 59//64 40//64 53//64
f 40//65 57//65 44//65
f 57//66 51//66 44//66
f 57//67 39//67 51//67
f 39//68 56//68 52//68
f 56//69 49//69 52//69
f 56//70 38//70 49//70
f 38//71 55//71 50//71
f 55//72 47//72 50//72
f 55//73 37//73 47//73
f 37//74 54//74 48//74
f 54//75 45//75 48//75
f 54//76 36//76 45//76
f 36//77 53//77 46//77
f 53//78 40//78 43//78
f 38//79 50//79 49//79
f 50//80 42//80 49//80
f 13//81 9//81 40//81
f 1//82 32//82 45//82
f 15//83 5//83 36//83
f 2//84 33//84 47//84
f 17//85 6//85 37//85
f 3//86 34//86 49//86
f 4//87 35//87 51//87
f 21//88 8//88 39//88
f 12//89 43//89 40//89
f 4//90 13//90 44//90
f 14//91 45//91 36//91
f 16//92 47//92 37//92
f 1//93 17//93 48//93
f 2//94 19//94 50//94
f 20//95 51//95 39//95
f 3//96 21//96 52//96
f 15//97 46//97 53//97
f 12//98 22//98 53//98
f 11//99 18//99 49//99
f 11//100 42//100 50//100
f 44//101 13//101 40//101
f 14//102 1//102 45//102
f 46//103 15//103 36//103
f 16//104 2//104 47//104
f 48//105 17//105 37//105
f 18//106 3//106 49//106
f 20//107 4//107 51//107
f 52//108 21//108 39//108
f 9//109 12//109 40//109
f 35//110 4//110 44//110
f 5//111 14//111 36//111
f 6//112 16//112 37//112
f 32//113 1//113 48//113
f 33//114 2//114 50//114
f 8//115 20//115 39//115
f 34//116 3//116 52//116
f 22//117 15//117 53//117
f 43//118 12//118 53//118
f 42//119 11//119 49//119
f 19//120 11//120 50//120
