# Blender v2.72 (sub 0) OBJ File: ''
# www.blender.org
o Cube.001
v 1.000000 -1.000000 1.000000
v -1.000000 -1.000000 1.000000
v -1.000000 -1.000000 -1.000000
v -1.000000 1.000000 -1.000000
v -1.000000 1.000000 1.000000
v -0.500000 2.000000 0.500000
v 1.000000 -1.000000 -1.000000
v 1.000000 1.000000 -0.999999
v 0.999999 1.000000 1.000001
v -0.500000 2.000000 -0.500000
v 0.500000 2.000000 0.500000
v 0.500000 2.000000 -0.500000
vn 0.000000 -1.000000 0.000000
vn -0.894400 0.447200 0.000000
vn 1.000000 0.000000 0.000000
vn -0.000000 -0.000000 1.000000
vn -1.000000 -0.000000 0.000000
vn 0.000000 0.000000 -1.000000
vn 0.000000 1.000000 0.000000
vn 0.000000 0.447200 0.894400
vn 0.000000 0.447200 -0.894400
vn 0.894400 0.447200 0.000000
s off
f 1//1 2//1 3//1
f 4//2 5//2 6//2
f 7//3 8//3 9//3
f 1//4 9//4 5//4
f 5//5 4//5 3//5
f 7//6 3//6 4//6
f 10//7 6//7 11//7
f 9//8 11//8 6//8
f 4//9 10//9 12//9
f 8//10 12//10 11//10
f 7//1 1//1 3//1
f 10//2 4//2 6//2
f 1//3 7//3 9//3
f 2//4 1//4 5//4
f 2//5 5//5 3//5
f 8//6 7//6 4//6
f 12//7 10//7 11//7
f 5//8 9//8 6//8
f 8//9 4//9 12//9
f 9//10 8//10 11//10
