# Blender v2.76 (sub 0) OBJ File: ''
# www.blender.org
o Icosphere
v 1.184768 6.203713 -3.646402
v -5.277175 3.261515 -3.834048
v -3.101824 6.203712 -2.253581
v -3.101824 6.203712 2.253581
v 0.000000 7.292872 0.000000
v 3.834080 6.203694 0.000000
v 2.205222 3.568241 6.787090
v -5.773458 3.568238 4.194613
v -5.773458 3.568238 -4.194613
v 2.205222 3.568241 -6.787090
v 7.136374 3.568207 0.000000
v 0.000000 7.978717 0.000000
v 1.184768 6.203713 3.646402
v 5.018877 3.834127 -3.646414
v -1.917069 3.834138 -5.900018
v -1.917069 3.834138 5.900018
v 5.018877 3.834127 3.646414
v 2.015663 3.261517 -6.203676
v 0.000000 0.000000 -7.292872
v -5.277175 3.261515 3.834048
v -4.286645 0.000000 5.900055
v 2.015663 3.261517 6.203676
v 7.588222 0.000000 2.465524
v 7.588222 0.000000 -2.465524
v 0.000000 0.000000 7.978717
v 4.689775 0.000000 6.454916
v 4.286645 0.000000 5.900055
v -4.689775 0.000000 6.454916
v -4.689775 0.000000 -6.454916
v 6.522936 3.261486 0.000000
v 4.689775 0.000000 -6.454916
v 0.000000 0.000000 -7.978717
v 5.490869 4.194701 3.989334
v -2.097356 4.194712 6.454875
v 6.935943 0.000000 -2.253590
v -2.097356 4.194712 -6.454875
v 5.490869 4.194701 -3.989334
v 1.296187 6.787131 3.989321
v 4.194649 6.787109 0.000000
v -3.393529 6.787129 2.465515
v -3.393529 6.787129 -2.465515
v 1.296187 6.787131 -3.989321
v 6.935943 0.000000 2.253590
v 0.000000 0.000000 7.292872
v -4.286645 0.000000 -5.900055
v 4.286645 0.000000 -5.900055
vn -0.688200 -0.525700 -0.500000
vn -0.894400 -0.447200 0.000000
vn 0.000000 -1.000000 0.000000
vn -0.992100 -0.125600 0.000000
vn -0.574600 -0.330400 -0.748800
vn 0.024700 -0.330400 0.943500
vn -0.306600 -0.125600 -0.943500
vn 0.024700 -0.330400 -0.943500
vn -0.574600 -0.330400 0.748800
vn 0.408900 0.661700 0.628400
vn -0.471300 0.661700 0.583100
vn -0.038500 -0.661700 0.748800
vn 0.038500 0.661700 -0.748800
vn 0.724000 0.661700 -0.194700
vn 0.268000 0.943500 -0.194700
vn 0.491100 0.794700 -0.356800
vn 0.408900 0.661700 -0.628400
vn -0.102400 0.943500 -0.315100
vn -0.187600 0.794700 -0.577300
vn -0.471300 0.661700 -0.583100
vn -0.331300 0.943500 0.000000
vn -0.408900 -0.661700 -0.628400
vn 0.471300 -0.661700 -0.583100
vn -0.102400 0.943500 0.315100
vn -0.187600 0.794700 0.577300
vn 0.038500 0.661700 0.748800
vn 0.268000 0.943500 0.194700
vn 0.491100 0.794700 0.356800
vn 0.724000 0.661700 0.194700
vn 0.889700 0.330400 -0.315100
vn 0.794700 0.187600 -0.577300
vn 0.574600 0.330400 -0.748800
vn -0.024700 0.330400 -0.943500
vn -0.303500 0.187600 -0.934200
vn -0.534600 0.330400 -0.777900
vn -0.724000 -0.661700 0.194700
vn -0.491100 -0.794700 0.356800
vn -0.408900 -0.661700 0.628400
vn -0.534600 0.330400 0.777900
vn -0.303500 0.187600 0.934200
vn -0.024700 0.330400 0.943500
vn 0.574600 0.330400 0.748800
vn 0.794700 0.187600 0.577300
vn 0.889700 0.330400 0.315100
vn 0.306600 0.125600 -0.943500
vn 0.187600 -0.794700 0.577300
vn 0.534600 -0.330400 -0.777900
vn -0.268000 -0.943500 0.194700
vn 0.471300 -0.661700 0.583100
vn -0.889700 -0.330400 -0.315100
vn 0.102400 -0.943500 0.315100
vn 0.331300 -0.943500 0.000000
vn -0.587800 -0.000000 -0.809000
vn 0.306600 0.125600 0.943500
vn -0.268000 -0.943500 -0.194700
vn -0.587800 0.000000 0.809000
vn 0.992100 0.125600 0.000000
vn -0.038500 -0.661700 -0.748800
vn -0.794700 -0.187600 0.577300
vn 0.303500 -0.187600 0.934200
vn 0.187600 -0.794700 -0.577300
vn 0.303500 -0.187600 -0.934200
vn -0.794700 -0.187600 -0.577300
vn 0.102400 -0.943500 -0.315100
vn -0.306600 -0.125600 0.943500
vn -0.889700 -0.330400 0.315100
vn 0.534600 -0.330400 0.777900
vn -0.491100 -0.794700 -0.356800
vn -0.688200 -0.525700 0.500000
vn -0.724000 -0.661700 -0.194700
s off
f 20//1 21//1 28//1
f 3//2 4//2 40//2
f 44//3 27//3 26//3
f 43//4 30//4 35//4
f 27//5 22//5 17//5
f 19//6 18//6 15//6
f 35//3 46//3 31//3
f 21//3 44//3 25//3
f 44//7 22//7 27//7
f 44//8 16//8 22//8
f 46//9 14//9 18//9
f 7//10 33//10 38//10
f 8//11 34//11 40//11
f 18//12 1//12 15//12
f 10//13 36//13 42//13
f 11//14 37//14 39//14
f 39//15 42//15 12//15
f 39//16 37//16 42//16
f 37//17 10//17 42//17
f 42//18 41//18 12//18
f 42//19 36//19 41//19
f 36//20 9//20 41//20
f 41//21 40//21 12//21
f 22//22 13//22 17//22
f 20//23 4//23 16//23
f 40//24 38//24 12//24
f 40//25 34//25 38//25
f 34//26 7//26 38//26
f 38//27 39//27 12//27
f 38//28 33//28 39//28
f 33//29 11//29 39//29
f 24//30 37//30 11//30
f 24//31 31//31 37//31
f 31//32 10//32 37//32
f 32//33 36//33 10//33
f 32//34 29//34 36//34
f 29//35 9//35 36//35
f 30//36 6//36 14//36
f 6//37 1//37 14//37
f 14//38 1//38 18//38
f 28//39 34//39 8//39
f 28//40 25//40 34//40
f 25//41 7//41 34//41
f 26//42 33//42 7//42
f 26//43 23//43 33//43
f 23//44 11//44 33//44
f 31//45 32//45 10//45
f 1//46 3//46 15//46
f 21//47 20//47 16//47
f 6//48 5//48 1//48
f 15//49 3//49 2//49
f 43//50 17//50 30//50
f 1//51 5//51 3//51
f 3//52 5//52 4//52
f 4//53 20//53 8//53
f 25//54 26//54 7//54
f 13//55 5//55 6//55
f 2//56 3//56 41//56
f 23//57 24//57 11//57
f 16//58 13//58 22//58
f 35//59 14//59 46//59
f 19//60 15//60 45//60
f 4//61 13//61 16//61
f 21//62 16//62 44//62
f 27//63 17//63 43//63
f 4//64 5//64 13//64
f 46//65 18//65 19//65
f 26//3 27//3 43//3
f 35//66 30//66 14//66
f 43//3 35//3 24//3
f 45//67 15//67 2//67
f 13//68 6//68 17//68
f 29//69 45//69 2//69
f 19//3 45//3 29//3
f 17//70 6//70 30//70
f 46//3 19//3 32//3
f 8//1 20//1 28//1
f 41//2 3//2 40//2
f 25//3 44//3 26//3
f 24//3 35//3 31//3
f 28//3 21//3 25//3
f 40//53 4//53 8//53
f 9//56 2//56 41//56
f 23//3 26//3 43//3
f 23//3 43//3 24//3
f 9//69 29//69 2//69
f 32//3 19//3 29//3
f 31//3 46//3 32//3
