# Blender v2.76 (sub 0) OBJ File: 'level1.blend'
# www.blender.org
mtllib tunnel.mtl
o Cylinder
v 0.668416 1.803286 -9.468910
v 0.668416 30.925755 -63.329781
v 1.888626 31.153904 -63.206421
v 1.888626 2.031435 -9.345551
v -1.831584 4.674645 -7.916382
v -1.508573 5.553942 -7.440947
v -0.809142 6.241014 -7.069445
v -0.551794 2.031435 -9.345551
v 2.897851 2.676432 -8.996803
v 3.521585 3.626753 -8.482965
v 3.651982 4.718077 -7.892889
v 3.266492 5.761705 -7.328604
v 2.431771 6.577184 -6.887676
v 1.292151 7.023510 -6.646347
v 0.044680 7.023510 -6.646347
v -1.094940 6.577184 -6.887676
v -1.929660 5.761705 -7.328604
v -2.315150 4.718077 -7.892889
v -2.184753 3.626753 -8.482965
v -1.561018 2.676432 -8.996803
v -0.354026 2.411043 -9.140303
v -1.199679 2.954479 -8.846470
v -1.722322 3.755162 -8.413546
v -0.551794 31.153904 -63.206421
v 1.191058 35.739529 -60.726974
v -1.561018 31.798901 -62.857674
v -2.184753 32.749222 -62.343834
v -2.315150 33.840546 -61.753761
v -1.929660 34.884174 -61.189468
v -1.094940 35.699654 -60.748543
v 0.044680 36.145981 -60.507214
v 1.292151 36.145981 -60.507214
v 2.431771 35.699654 -60.748543
v 3.266492 34.884174 -61.189468
v 2.845405 34.676399 -61.301796
v 2.145973 35.363476 -60.930298
v 2.536511 32.076942 -62.707321
v 3.059154 32.877617 -62.274384
v 3.168416 33.797104 -61.777222
v 3.651982 33.840546 -61.753761
v 3.521585 32.749222 -62.343834
v 2.897851 31.798904 -62.857670
v 1.690858 31.533506 -63.001163
v 0.668416 31.341286 -63.105103
v 0.668416 2.218817 -9.244236
v 1.690858 2.411041 -9.140301
v 2.536511 2.954477 -8.846466
v 1.191058 6.617061 -6.866116
v 2.145973 6.241013 -7.069443
v 2.845405 5.553941 -7.440941
v 3.168416 4.674643 -7.916376
v 3.059154 3.755160 -8.413540
v -0.354026 31.533510 -63.001167
v 0.145773 35.739529 -60.726982
v -0.809142 35.363480 -60.930305
v -1.508573 34.676407 -61.301811
v -1.831584 33.797112 -61.777245
v -1.722322 32.877628 -62.274406
v -1.199679 32.076946 -62.707329
v 0.668416 1.812082 -9.464155
v 0.668416 30.934551 -63.325024
v 1.884559 31.161942 -63.202072
v 1.884559 2.039471 -9.341206
v -1.841530 4.675560 -7.915888
v -1.517244 5.558323 -7.438578
v -0.816591 6.246881 -7.066273
v -0.547727 2.039471 -9.341206
v 2.890419 2.682318 -8.993620
v 3.512075 3.629471 -8.481497
v 3.642036 4.717157 -7.893387
v 3.257832 5.757307 -7.330982
v 2.425894 6.570067 -6.891523
v 1.290072 7.014906 -6.650999
v 0.046759 7.014906 -6.650999
v -1.089063 6.570067 -6.891523
v -1.921000 5.757307 -7.330982
v -2.305205 4.717157 -7.893387
v -2.175243 3.629471 -8.481497
v -1.553587 2.682318 -8.993620
v -0.359925 2.403940 -9.144144
v -1.207128 2.948610 -8.849644
v -1.731837 3.752456 -8.415009
v -0.547727 31.161942 -63.202072
v 1.195144 35.747559 -60.722633
v -1.553587 31.804787 -62.854488
v -2.175243 32.751938 -62.342365
v -2.305205 33.839626 -61.754257
v -1.921000 34.879776 -61.191849
v -1.089063 35.692535 -60.752388
v 0.046759 36.137379 -60.511864
v 1.290072 36.137379 -60.511864
v 2.425894 35.692535 -60.752388
v 3.257832 34.879776 -61.191849
v 2.854076 34.680782 -61.299427
v 2.151870 35.370579 -60.926453
v 2.543959 32.071072 -62.710495
v 3.068669 32.874912 -62.275848
v 3.178361 33.798016 -61.776730
v 3.642036 33.839626 -61.754257
v 3.512075 32.751938 -62.342365
v 2.890419 31.804790 -62.854488
v 1.696757 31.526405 -63.005005
v 0.668416 31.337269 -63.095947
v 0.668416 2.224281 -9.252611
v 1.696757 2.403938 -9.144142
v 2.543959 2.948608 -8.849640
v 1.195144 6.625089 -6.861774
v 2.151870 6.248116 -7.065601
v 2.854076 5.558322 -7.438572
v 3.178361 4.675558 -7.915882
v 3.068669 3.752454 -8.415003
v -0.359925 31.526407 -63.005009
v 0.145943 35.734081 -60.718597
v -0.816591 35.369347 -60.927132
v -1.517244 34.680786 -61.299438
v -1.841530 33.798027 -61.776749
v -1.731837 32.874924 -62.275871
v -1.207128 32.071075 -62.710503
vn 0.207900 -0.860400 -0.465200
vn -0.207900 -0.860400 -0.465200
vn 0.587800 -0.711700 -0.384800
vn 0.866000 -0.439800 -0.237800
vn 0.994500 -0.091900 -0.049700
vn 0.951100 0.271800 0.147000
vn 0.743100 0.588600 0.318300
vn 0.406700 0.803600 0.434500
vn 0.000000 0.879600 0.475600
vn -0.406700 0.803600 0.434500
vn -0.743100 0.588600 0.318300
vn -0.951100 0.271800 0.147000
vn -0.994500 -0.091900 -0.049700
vn -0.866000 -0.439800 -0.237800
vn -0.587800 -0.711600 -0.384800
vn -0.589900 0.710300 0.384100
vn -0.867200 0.438000 0.236800
vn -0.994600 0.091500 0.049400
vn -0.951600 -0.270500 -0.146200
vn -0.745000 -0.586800 -0.317300
vn -0.408600 -0.802900 -0.434100
vn 0.589900 0.710300 0.384100
vn 0.867200 0.438000 0.236800
vn 0.994600 0.091500 0.049400
vn 0.951600 -0.270500 -0.146200
vn 0.745000 -0.586800 -0.317300
vn -0.207900 0.860400 0.465200
vn 0.207900 0.860400 0.465200
vn -0.587800 0.711700 0.384800
vn -0.866000 0.439800 0.237800
vn -0.994500 0.091900 0.049700
vn -0.951100 -0.271800 -0.147000
vn -0.743100 -0.588600 -0.318300
vn -0.406700 -0.803600 -0.434500
vn 0.000000 -0.879600 -0.475600
vn 0.406700 -0.803600 -0.434500
vn 0.743100 -0.588600 -0.318300
vn 0.951100 -0.271800 -0.147000
vn 0.994500 0.091900 0.049700
vn 0.866000 0.439800 0.237800
vn 0.587800 0.711700 0.384800
vn 0.590100 -0.710200 -0.384000
vn 0.867200 -0.438000 -0.236800
vn 0.994600 -0.091500 -0.049400
vn 0.951600 0.270500 0.146200
vn 0.745000 0.586800 0.317300
vn 0.408800 0.802800 0.434100
vn -0.590100 -0.710200 -0.384000
vn -0.867200 -0.438000 -0.236800
vn -0.994600 -0.091500 -0.049400
vn -0.951600 0.270500 0.146200
vn -0.745100 0.586700 0.317200
vn 0.000100 0.475900 -0.879500
vn 0.000000 -0.475600 0.879600
vn -0.000100 -0.475600 0.879700
vn 0.000100 -0.475600 0.879700
vn -0.000100 -0.475600 0.879600
vn 0.000000 0.475700 -0.879600
vn 0.000000 -0.475500 0.879700
vn 0.000700 0.475800 -0.879500
vn -0.000700 0.475500 -0.879700
vn -0.000400 0.475900 -0.879500
vn 0.000100 -0.475700 0.879600
vn 0.000000 0.475500 -0.879700
vn -0.001300 0.475600 -0.879700
vn 0.000000 -0.475600 0.879700
vn 0.000600 0.475800 -0.879500
vn -0.000200 0.475400 -0.879800
vn 0.000000 0.475200 -0.879900
vn 0.000400 0.475300 -0.879800
vn 0.000100 0.475800 -0.879600
vn 0.000100 -0.475600 0.879600
vn -0.000400 0.475600 -0.879700
vn 0.000200 -0.475600 0.879700
vn -0.000100 -0.475700 0.879600
vn -0.000000 0.475900 -0.879500
vn 0.000000 0.475600 -0.879600
vn -0.807300 -0.519100 -0.280700
vn 0.000000 -0.475700 0.879600
vn 0.807600 -0.518800 -0.280500
vn -0.000700 0.475800 -0.879600
vn 0.000400 0.475600 -0.879700
vn 0.000700 0.475600 -0.879700
vn 0.000000 0.475600 -0.879700
vn 0.000200 0.475700 -0.879600
vn -0.000000 0.475800 -0.879600
vn -0.001000 0.475600 -0.879700
vn 0.000200 0.475200 -0.879900
vn -0.912600 0.359700 0.194500
vn 0.667100 0.655300 0.354300
vn -0.587800 -0.711700 -0.384800
vn -0.994600 0.091400 0.049400
vn 0.994600 0.091400 0.049400
vn -0.587800 0.711600 0.384800
vn -0.000200 0.475900 -0.879500
vn 0.000700 0.475500 -0.879700
vn 0.000600 0.475500 -0.879700
vn 0.000200 -0.475600 0.879600
vn -0.000200 -0.475600 0.879700
vn -0.000600 0.475300 -0.879800
vn 0.000300 0.475100 -0.879900
vn -0.000600 0.475800 -0.879600
vn 0.001300 0.475600 -0.879700
vn 0.000600 0.475800 -0.879600
vn 0.000600 0.475600 -0.879600
vn -0.807600 -0.518800 -0.280500
vn 0.807300 -0.519100 -0.280700
vn 0.000000 0.475800 -0.879500
vn 0.000000 0.476300 -0.879300
vn -0.912800 0.359200 0.194200
vn 0.667000 0.655400 0.354400
usemtl None
s off
f 2//1 3//1 4//1
f 8//2 24//2 2//2
f 3//3 42//3 9//3
f 42//4 41//4 10//4
f 41//5 40//5 11//5
f 40//6 34//6 12//6
f 12//7 34//7 33//7
f 33//8 32//8 14//8
f 32//9 31//9 15//9
f 31//10 30//10 16//10
f 30//11 29//11 17//11
f 29//12 28//12 18//12
f 18//13 28//13 27//13
f 27//14 26//14 20//14
f 26//15 24//15 8//15
f 37//16 43//16 46//16
f 38//17 37//17 47//17
f 38//18 52//18 51//18
f 39//19 51//19 50//19
f 35//20 50//20 49//20
f 25//21 36//21 49//21
f 21//22 53//22 59//22
f 22//23 59//23 58//23
f 23//24 58//24 57//24
f 5//25 57//25 56//25
f 6//26 56//26 55//26
f 63//27 62//27 61//27
f 61//28 83//28 67//28
f 101//29 62//29 63//29
f 100//30 101//30 68//30
f 99//31 100//31 69//31
f 93//32 99//32 70//32
f 72//33 92//33 93//33
f 73//34 91//34 92//34
f 90//35 91//35 73//35
f 89//36 90//36 74//36
f 76//37 88//37 89//37
f 77//38 87//38 88//38
f 86//39 87//39 77//39
f 79//40 85//40 86//40
f 83//41 85//41 79//41
f 105//42 102//42 96//42
f 106//43 96//43 97//43
f 111//44 97//44 98//44
f 110//45 98//45 94//45
f 109//46 94//46 95//46
f 107//47 108//47 95//47
f 112//48 80//48 81//48
f 118//49 81//49 82//49
f 116//50 117//50 82//50
f 116//51 64//51 65//51
f 114//52 115//52 65//52
f 3//53 2//53 61//53
f 1//54 4//54 63//54
f 6//54 65//54 64//54
f 6//55 7//55 66//55
f 22//54 81//54 80//54
f 22//56 23//56 82//56
f 23//57 5//57 64//57
f 24//58 83//58 61//58
f 8//59 1//59 60//59
f 36//60 95//60 94//60
f 35//61 94//61 98//61
f 42//62 3//62 62//62
f 9//63 68//63 63//63
f 42//64 101//64 100//64
f 9//55 10//55 69//55
f 41//65 100//65 99//65
f 10//66 11//66 70//66
f 40//58 99//58 93//58
f 11//66 12//66 71//66
f 34//67 93//67 92//67
f 13//56 72//56 71//56
f 32//68 33//68 92//68
f 13//66 14//66 73//66
f 31//69 32//69 91//69
f 15//66 74//66 73//66
f 31//64 90//64 89//64
f 15//66 16//66 75//66
f 29//70 30//70 89//70
f 17//66 76//66 75//66
f 28//71 29//71 88//71
f 17//72 18//72 77//72
f 27//73 28//73 87//73
f 19//74 78//74 77//74
f 26//73 27//73 86//73
f 19//75 20//75 79//75
f 24//76 26//76 85//76
f 8//54 67//54 79//54
f 37//77 96//77 102//77
f 43//78 102//78 105//78
f 47//79 46//79 105//79
f 49//79 108//79 107//79
f 49//54 50//54 109//54
f 50//56 51//56 110//56
f 52//66 111//66 110//66
f 47//79 106//79 111//79
f 21//80 80//80 112//80
f 56//81 115//81 114//81
f 56//82 57//82 116//82
f 58//83 117//83 116//83
f 59//84 118//84 117//84
f 59//85 53//85 112//85
f 37//86 38//86 97//86
f 38//87 39//87 98//87
f 36//88 25//88 84//88
f 48//89 107//89 84//89
f 7//90 55//90 114//90
f 1//1 2//1 4//1
f 1//2 8//2 2//2
f 4//3 3//3 9//3
f 9//4 42//4 10//4
f 10//5 41//5 11//5
f 11//6 40//6 12//6
f 13//7 12//7 33//7
f 13//8 33//8 14//8
f 14//9 32//9 15//9
f 15//10 31//10 16//10
f 16//11 30//11 17//11
f 17//12 29//12 18//12
f 19//13 18//13 27//13
f 19//14 27//14 20//14
f 20//91 26//91 8//91
f 47//16 37//16 46//16
f 52//17 38//17 47//17
f 39//92 38//92 51//92
f 35//19 39//19 50//19
f 36//20 35//20 49//20
f 48//21 25//21 49//21
f 22//22 21//22 59//22
f 23//23 22//23 58//23
f 5//93 23//93 57//93
f 6//25 5//25 56//25
f 7//26 6//26 55//26
f 60//27 63//27 61//27
f 60//28 61//28 67//28
f 68//94 101//94 63//94
f 69//30 100//30 68//30
f 70//31 99//31 69//31
f 71//32 93//32 70//32
f 71//33 72//33 93//33
f 72//34 73//34 92//34
f 74//35 90//35 73//35
f 75//36 89//36 74//36
f 75//37 76//37 89//37
f 76//38 77//38 88//38
f 78//39 86//39 77//39
f 78//40 79//40 86//40
f 67//41 83//41 79//41
f 106//42 105//42 96//42
f 111//43 106//43 97//43
f 110//44 111//44 98//44
f 109//45 110//45 94//45
f 108//46 109//46 95//46
f 84//47 107//47 95//47
f 118//48 112//48 81//48
f 117//49 118//49 82//49
f 64//50 116//50 82//50
f 115//51 116//51 65//51
f 66//52 114//52 65//52
f 62//58 3//58 61//58
f 60//59 1//59 63//59
f 5//66 6//66 64//66
f 65//54 6//54 66//54
f 21//79 22//79 80//79
f 81//57 22//57 82//57
f 82//72 23//72 64//72
f 2//95 24//95 61//95
f 67//54 8//54 60//54
f 35//96 36//96 94//96
f 39//77 35//77 98//77
f 101//97 42//97 62//97
f 4//57 9//57 63//57
f 41//64 42//64 100//64
f 68//98 9//98 69//98
f 40//84 41//84 99//84
f 69//99 10//99 70//99
f 34//58 40//58 93//58
f 70//75 11//75 71//75
f 33//100 34//100 92//100
f 12//79 13//79 71//79
f 91//69 32//69 92//69
f 72//66 13//66 73//66
f 90//86 31//86 91//86
f 14//54 15//54 73//54
f 30//101 31//101 89//101
f 74//66 15//66 75//66
f 88//102 29//102 89//102
f 16//55 17//55 75//55
f 87//77 28//77 88//77
f 76//54 17//54 77//54
f 86//103 27//103 87//103
f 18//66 19//66 77//66
f 85//104 26//104 86//104
f 78//74 19//74 79//74
f 83//105 24//105 85//105
f 20//79 8//79 79//79
f 43//64 37//64 102//64
f 46//106 43//106 105//106
f 106//63 47//63 105//63
f 48//54 49//54 107//54
f 108//54 49//54 109//54
f 109//72 50//72 110//72
f 51//54 52//54 110//54
f 52//55 47//55 111//55
f 53//107 21//107 112//107
f 55//86 56//86 114//86
f 115//81 56//81 116//81
f 57//84 58//84 116//84
f 58//108 59//108 117//108
f 118//64 59//64 112//64
f 96//84 37//84 97//84
f 97//58 38//58 98//58
f 95//109 36//109 84//109
f 25//110 48//110 84//110
f 66//111 7//111 114//111
l 17 5
l 35 34
l 45 46
l 45 44
l 44 53
l 54 55
l 76 64
l 94 93
l 104 105
l 104 103
l 103 112
l 113 114
